<?xml version="1.0" encoding="utf-8"?>
<!-- Generator: Adobe Illustrator 18.1.1, SVG Export Plug-In . SVG Version: 6.00 Build 0)  -->
<svg version="1.1" id="Layer_1" xmlns="http://www.w3.org/2000/svg" xmlns:xlink="http://www.w3.org/1999/xlink" x="0px" y="0px"
	 width="360px" height="250px" viewBox="0 0 360 250" enable-background="new 0 0 360 250" xml:space="preserve">
<g>
	<g>
		<g>
			<path fill="#FFFFFF" d="M198.9,113.5v-8.6c0-5.3-2.1-10.2-5.6-13.7s-8.2-5.7-13.5-5.7s-10,2.2-13.5,5.7s-5.6,8.3-5.6,13.7v8.6
				h-16.9l0,0v-8.9c0-9.9,4-18.9,10.5-25.4c6.5-6.5,15.5-10.5,25.4-10.5c9.9,0,18.9,4,25.4,10.5s10.5,15.5,10.5,25.4v8.9H198.9z"/>
		</g>
		<path fill="#B2D8F7" d="M230.8,182.1H127v-61c0-3.7,3-6.7,6.7-6.7h92.2c3.7,0,6.7,3,6.7,6.7v59.2
			C232.6,181.3,231.8,182.1,230.8,182.1z"/>
		<g opacity="0.1">
			<path fill="#505A78" d="M127.9,182.1h9.5v-67.9h-3.9c-3.1,0-5.6,2.5-5.6,5.6V182.1z"/>
			<g>
				<path fill="#505A78" d="M128.4,181.7c0.1-5.5,0.2-11.9,0.2-14.4c0-5.1,0.1-9.8,0.1-14.5c0-4.9,0-9.6,0-14.5
					c0-4.7-0.2-9.5-0.1-14.5l0.1-2.9c0-0.5,0-1,0.1-1.4c0-0.4,0.1-0.8,0.2-1.2c0.5-1.5,1.9-2.7,3.4-3.1c0.4-0.1,0.7-0.1,1.2-0.1
					l1.4,0l1.4,0c0.1,0,0.1,0,0.1,0l0,0l0,0c0,0,0,0,0,0l0,0l0,0c0,0,0,0,0,0.1l0,0.7l0,1.5l0,3c0,3.8,0,7.7,0,11.5
					c0,3.9-0.1,7.5-0.1,11.3c0,3.7,0.1,8.2,0.1,12.5c0,4.3,0,8.7,0,12.3c0,2.4,0,7.8,0,13.3c0,0,0,0.1,0,0.1c-2.7,0-5.6,0.1-7.8,0.1
					c-0.5,0-0.8,0.1-1.1,0.1v1.1c0.2,0,0.5,0,1.1,0c1.9,0,5.1,0,9,0c0.1,0,0-0.1,0.1-0.2c0-0.1,0-0.2,0-0.2c0-0.2,0-0.3,0-0.5
					c0-0.3,0-0.6,0-1c0-0.5,0-1.1,0-1.7c0-7.4,0-14.6,0-15.9c0-4.4,0-8.6,0-12.7c0-4.3,0-8.5,0-12.7c0-4.2,0-8.4-0.1-12.7
					c0-1.7,0-3.4,0.1-5.2c0-1.9,0.1-3.9,0.1-5.9c0-0.1,0-0.3,0-0.4c0-0.1,0-0.2,0-0.2l-0.2,0c-0.3,0-0.6,0-0.9,0c-0.4,0-0.9,0-1.3,0
					l-1.7,0c-0.5,0-1.3,0-1.9,0.1c-1.3,0.3-2.5,1-3.4,1.9c-0.9,1-1.5,2.2-1.6,3.5c0,0.3,0,0.7-0.1,1l0,0.9l0,1.7
					c0,4.6-0.1,9.2-0.1,13.7c0,4.6,0.2,9.2,0.2,13.7c0,4.6-0.3,9.2-0.3,13.7c0,2.2,0.1,5.6,0.2,11.7c0,1.9,0.1,3.9,0.1,5.8
					c0,0.3,0.1,0.6,0.1,0.9h1.1V181.7z"/>
			</g>
		</g>
		<g>
			<g>
				<path fill="#505A78" d="M142.1,114.3c-0.4-0.4-1.5-0.6-2.8-0.7c-1.7-0.1-3.5-0.1-5.1-0.1c-0.8,0-1.5,0-2.2,0
					c-0.7,0-1.3,0.2-1.7,0.3c-1.9,0.6-3.3,2.3-3.8,4.2c-0.1,0.5-0.2,1-0.2,1.4l0,1.2c0,0.8,0,1.6,0,2.5c0,3.3,0,6.6-0.1,10.1
					c-0.2,7.1-0.2,14.5-0.2,21.4c0,3.4,0.1,8.1,0.2,11.5c0,1.7,0.1,6.8,0.2,10c0,0.7,0,1.2,0,1.5c0,1.9,1.4,2.6,1.4-0.2
					c0-2.7,0-12.6,0-13.7c0.1-8.6-0.2-15.1,0.1-23.6c0.1-4.2,0.1-8.5,0.1-12.8c0-2.1,0-4.3,0-6.4l0-1.6c0-0.5,0-0.9,0.2-1.3
					c0.2-0.8,0.8-1.6,1.4-2.1c0.1-0.1,1.1-1,2.9-0.9c2,0,4.6-0.1,6.8-0.2C141.1,114.8,142.5,114.6,142.1,114.3z"/>
			</g>
		</g>
		<g>
			<g>
				<path fill="#505A78" d="M215.7,111.9c0.4-0.4,0.6-1.5,0.7-2.8c0-2.1,0.1-4.2,0.1-6.4c0-2.2-0.3-4.3-0.7-6.3
					c-0.4-2-1-3.8-1.5-5.3c-0.6-1.5-1.1-2.7-1.6-3.6c-2-4-4.6-7.5-7.6-10.4c-3-2.9-6.5-5.2-10.3-6.9c-3.7-1.7-7.8-2.7-12-3.1
					c-4.2-0.4-8.5,0-12.8,1.1c-8.6,2.3-16.5,8-21.3,15.7c-2.4,3.8-4.2,8.1-5,12.5c-0.5,2.2-0.7,4.4-0.7,6.7c0,2.2,0,4.3,0,6.5
					c0,0.5,0,1.1,0,1.6c0,0.3,0,0.5,0,0.8l0,0.4l0,0.2c0,0.1,0,0.2,0,0.3c0.1,0.9,0.8,1.7,1.7,2c0.2,0.1,0.5,0.1,0.7,0.1
					c0.1,0,0.2,0,0.3,0l0.2,0l0.9,0c2.4,0,4.9-0.1,7.3-0.1c2.5-0.1,5-0.1,7.3-0.2c2.4,0,4.7,0,6.7-0.1c4.5,0,20.1-0.1,26.2-0.1
					c1.9,0,2.6-1.4-0.2-1.4c-6.2,0-29.2-0.1-31.6-0.1c-5.3,0.1-10.2,0.1-15,0.2c-0.6,0-1.2,0-1.8,0l-0.2,0l-0.1,0
					c-0.1,0-0.1,0-0.2-0.1c-0.1-0.1-0.3-0.1-0.3-0.3c-0.1-0.1-0.1-0.3-0.1-0.4l0-0.8l0-1.8c0-2.3,0-4.7,0-7
					c0.1-9,3.7-18.2,11.3-25.1c3.7-3.4,8.2-6,13.1-7.6c4.8-1.6,10-2,15.1-1.4c10.2,1.2,19.6,7.2,25,15.7c0.2,0.3,2.3,3.4,3.9,8
					c0.8,2.3,1.4,5,1.7,7.8c0.3,2.8,0.2,5.7,0.3,8.5C215.1,110.9,215.3,112.3,215.7,111.9z"/>
			</g>
		</g>
		<g>
			<g>
				<path fill="#505A78" d="M160.7,111.9c0.4-0.4,0.6-1.5,0.7-2.8c0-1.3,0-2.6,0-4c0-1.4,0-2.6,0.3-3.9c0.4-2.6,1.4-5,2.6-7.1
					c1.3-2,2.8-3.7,4.4-4.9c1.5-1.2,3-1.9,4.1-2.4c4.9-2.1,10.5-1.8,15,0.4c4.5,2.2,7.9,6.2,9.5,10.8c0.4,1.2,0.7,2.4,0.8,3.6
					c0.2,1.2,0.2,2.4,0.2,3.7c0,1.3,0,2.6,0,3.8l0,1.9l0,1c0,0.4,0.1,0.9,0.3,1.3c0.4,0.8,1.2,1.3,2.1,1.5c0.5,0.1,0.8,0,1.1,0l1,0
					c1.3,0,2.6,0,4,0c2.7,0,5.4,0,8.1,0.1c2.7,0,5.5,0,8.3,0.1c1.4,0,2.8,0,4.1,0l0.5,0l0.4,0c0.3,0,0.6,0.1,0.8,0.2
					c0.5,0.2,1,0.5,1.5,0.8c0.9,0.8,1.4,1.9,1.4,3l0,4.1l0,8.4c0,11.1,0,22.2,0,33c0,2.6,0,5.5,0,8.5c0,1.5,0,3,0,4.6l0,0.6
					c0,0.2,0,0.5,0.1,0.7c0.1,0.5,0.2,0.9,0.5,1.4c0.4,0.9,1.2,1.6,2,2c0.4,0.2,0.9,0.4,1.4,0.5c0.2,0,0.5,0.1,0.7,0.1l0.6,0
					c0.8,0,1.6,0,2.3,0c1.5,0,3.1,0,4.6,0c3,0,5.9,0,8.5-0.1c5.6,0,25-0.1,32.6-0.2c1.9,0,2.6-1.4-0.2-1.4c-7.8,0-36.5,0-39.5,0
					c-1.7,0-3.3,0-4.9,0c-0.8,0-1.6,0-2.4,0c-0.8,0-1.7,0-2.2-0.1c-1.2-0.2-2.2-1.3-2.3-2.5c0-0.2,0-0.3,0-0.5l0-0.6l0-1.1
					c0-0.8,0-1.5,0-2.3c0-6,0-11.9,0-17.7c0-11.7,0-23.3,0.1-36.5l0-0.6c0-0.2,0-0.5,0-0.7c-0.1-0.5-0.1-1-0.3-1.4
					c-0.3-0.9-0.8-1.7-1.6-2.4c-0.7-0.7-1.6-1.2-2.5-1.4c-0.5-0.1-1-0.2-1.4-0.2c-0.5,0-0.8,0-1.3,0c-3.3,0-6.6,0-9.9-0.1
					c-3.3,0-6.6,0-9.9,0l-5,0l-0.6,0c-0.2,0-0.2,0-0.4,0c-0.2-0.1-0.4-0.2-0.6-0.3c-0.2-0.2-0.3-0.4-0.3-0.6c0-0.1,0-0.1,0-0.2
					l0-0.3l0-0.6l0-5c0-1.6,0-3.4-0.2-5.1c-0.5-3.4-1.9-6.7-4.1-9.5c-2.1-2.7-5-4.9-8.2-6.3c-3.2-1.3-6.7-1.8-10.2-1.4
					c-0.3,0-1.7,0.2-3.7,0.9c-2,0.7-4.7,2-7.1,4.3c-2.4,2.2-4.6,5.4-5.6,9.1c-0.5,1.8-0.8,3.7-0.8,5.6c0,1.8,0,3.6,0.1,5.3
					C160.2,110.9,160.4,112.3,160.7,111.9z"/>
			</g>
		</g>
		<g opacity="0.1">
			<g>
				<path fill="#505A78" d="M147.8,104.6c0-9.9,4-18.9,10.5-25.4c6.1-6.1,14.3-10,23.5-10.5c-0.6,0-1.3-0.1-1.9-0.1
					c-9.9,0-18.9,4-25.4,10.5c-6.5,6.5-10.5,15.5-10.5,25.4v6v2c0,0.5,0.4,0.9,0.9,0.9h2.9v-2.9V104.6z"/>
				<g>
					<path fill="#505A78" d="M147.3,105l0,0.4l0,0.1l0,0.3l0,0.8c0,1,0,2,0,3c0,0.9,0,1.8,0,2.6c0,0.5,0,0.5,0,0.6
						c0,0.2-0.1,0.1-0.2,0.1c-0.9,0-1.6,0-2.1,0c-0.2,0-0.3-0.2-0.3-0.3c0-2.2,0-4.3,0.1-6.3c0-2.1,0.1-4.1,0.3-6.1
						c0.5-4.1,1.8-8.1,3.7-11.8c1.9-3.5,4.2-7,7.5-9.9c1.2-1.1,2.6-2,3.9-2.9c1.4-0.9,2.8-1.6,4.3-2.4c2.9-1.4,6-2.7,9.3-3.2
						c1.3-0.2,2.7-0.4,4.1-0.5c0.7,0,1.4-0.1,2-0.1l1,0l0.5,0l0.3,0l0,0l0,0c0,1.4,0-1.9,0-1.6l0,0l0,0l0,0l-0.1,0l-0.1,0h0
						c-0.6,0.1-1.2,0.1-1.8,0.1c-3.5,0.4-6.6,1.1-9.8,2.4c-3.1,1.2-6.6,3.3-9.6,5.9c-3,2.5-5.6,5.5-7.3,8.2
						c-0.6,0.9-1.6,2.5-2.5,4.5c-0.9,2-1.8,4.4-2.4,6.9c-0.6,2.6-0.9,5.5-0.9,7.6c0,0.5,0,0.8,0,1.1h1.1c0-0.2,0-0.5,0-1
						c0-1.1,0.1-2.6,0.4-4.3c0.3-1.7,0.7-3.6,1.3-5.4c1-3,2.4-5.9,3.7-8c1.3-2.1,2.5-3.5,2.9-3.9c2.5-2.9,5.3-5.3,8.2-7.2
						c3.2-2,6.5-3.4,10-4.3c2.2-0.6,4.4-0.9,6.6-1.1h0l0.1,0l0.1,0l0,0l0,0l0,0c0,1.1,0-1.6,0-1.3h0h0l0,0l-0.3,0l-0.5,0
						c-0.4,0-0.7,0-1.1,0c-0.7,0-1.5,0-2.2,0.1c-3.6,0.2-7.3,0.8-11.1,2.2c-3.9,1.4-7.4,3.6-10.6,6.3c-3.2,2.6-5.9,5.8-8,9.4
						c-2.1,3.6-3.4,7.5-4.2,11.5c-0.4,2-0.7,4.1-0.8,6.1c-0.1,2.1-0.2,4-0.2,6c0,0.6,0,1.4,0,2.5c0,0.1,0,0.3,0,0.4
						c0,0.2,0,0.6,0.2,0.8c0.2,0.5,0.8,1,1.5,1.1c0.4,0,0.5,0,0.7,0c0.2,0,0.4,0,0.6,0c0.5,0,1.1,0,1.7,0c0.1,0,0.3,0,0.6,0
						c0.1,0,0.5,0.1,0.4-0.2c0-0.2,0-0.5,0-0.8c0-0.7,0-1.7,0-2.8c0-1.7-0.1-3.4-0.1-5.1c0-0.3-0.1-0.6-0.1-0.9h-1.1V105z"/>
				</g>
			</g>
			<g>
				<path fill="#505A78" d="M197.2,91.3c-3.4-3.5-8.2-5.7-13.5-5.7c-0.7,0-1.3,0-1.9,0.1c4.5,0.5,8.5,2.5,11.5,5.6
					c3.4,3.5,5.6,8.3,5.6,13.7v6.5c0,0.8,0.6,1.4,1.4,1.4h2.5v-7.8C202.8,99.6,200.6,94.8,197.2,91.3z"/>
				<g>
					<path fill="#505A78" d="M197.1,91.9c0.1,0.1,0.2,0.3,0.3,0.4c1.9,2.2,3,4.9,3.4,6c0.9,2.4,1.1,4.7,1.1,7.1l0,6.6
						c0,0-0.1,0-0.1,0l-0.8,0l-0.8,0c-0.1,0-0.3-0.1-0.4-0.2c-0.1-0.1-0.2-0.2-0.2-0.4c0,0,0-0.3,0-0.4l0-0.5c0-0.6,0-1.3,0-1.9
						c0-2,0.3-3.9,0.1-6c-0.2-2.1-0.9-4-1.8-5.9c-0.8-1.9-2-3.6-3.3-5.2c-1.4-1.6-2.8-2.9-4.5-4c-1.7-1-4-1.9-6.3-2.4
						c-0.4-0.1-0.8-0.1-1.1-0.2c-0.2,0-0.4,0-0.5-0.1l-0.3,0l-0.1,0l0,0l0,0l0,0c0-0.3,0,2.8,0,1.5h0h0l0,0l0,0l0.1,0h0
						c0.8,0,1.5-0.1,2.2-0.1c0.7,0,1.3,0,1.9,0.1c1.2,0.1,4,0.7,6.5,2.1c1.3,0.7,2.6,1.6,3.5,2.4c0.3,0.3,0.6,0.5,0.8,0.7l0.8-0.7
						c-0.2-0.2-0.3-0.4-0.8-0.8c-0.5-0.4-1.2-1-2.1-1.7c-0.9-0.6-1.9-1.2-3-1.7c-1.8-0.8-3.7-1.3-5.2-1.6c-1.5-0.2-2.6-0.2-3-0.2
						c-0.6,0-1.2,0.1-1.8,0.1h0l0,0l0,0l0,0l0,0c0-0.3,0,2.4,0,1.3l0,0l0,0l0.1,0l0.2,0l0.3,0c0.2,0,0.4,0.1,0.6,0.1
						c0.4,0.1,0.8,0.1,1.1,0.2c0.7,0.2,1.5,0.4,2.2,0.6c2,0.7,3.8,1.9,5.4,3.2c1.6,1.3,3,2.9,4.1,4.7c1,1.7,1.7,3.7,2.1,5.9
						c0.2,1.1,0.3,2.2,0.3,3.4c0,1.1,0,2.3,0,3.5l0,1.8l0,0.9l0,0.4c0,0.2,0,0.3,0,0.5c0.1,1,0.9,1.8,1.8,2c0.6,0.1,0.7,0,1.1,0
						l0.9,0l1.4,0l0.4,0l0.1,0l0-0.1l0-0.2l0-0.8l0-1.2l-0.1-1.6c0-1.1-0.1-2.1-0.1-3.2c0-0.6,0-1.2,0-1.8c0-0.6,0-1.2,0-1.8
						c0-1.2-0.2-2.5-0.5-3.6c-0.3-1.1-0.9-2.9-2.7-5.7c-0.6-0.8-1.2-1.6-2-2.4c-0.2-0.2-0.5-0.4-0.7-0.6l-0.8,0.7
						C196.9,91.7,197,91.8,197.1,91.9z"/>
				</g>
			</g>
		</g>
		<g>
			<g>
				<path fill="#505A78" d="M230.8,182.2c-0.4-0.4-1.5-0.6-2.8-0.7c-7.1-0.1-15.4-0.1-18.7-0.1c-15-0.1-27.6,0-42.6-0.2
					c-14.9-0.2-30.4-0.2-45-0.2c-7.2,0-17,0.1-24.1,0.2c-3.9,0-17.4,0.1-22.7,0.2c-1.9,0-2.6,1.4,0.2,1.4c5.4,0,25.2,0,27.2,0
					c18,0.1,31.8-0.2,49.7,0.1c17.8,0.3,36,0,53.8,0.1c0.8,0,12.8,0,22.2-0.2C229.8,182.8,231.2,182.6,230.8,182.2z"/>
			</g>
		</g>
		<g>
			<g>
				<path fill="#FFFFFF" d="M158.3,126.5h-8.7c-0.5,0-0.9,0.4-0.9,0.9v8.7c0,0.5,0.4,0.9,0.9,0.9h8.7c0.5,0,0.9-0.4,0.9-0.9V130
					v-2.2v-0.4C159.2,126.9,158.8,126.5,158.3,126.5z"/>
			</g>
			<g>
				<g>
					<g>
						<path fill="#505A78" d="M158.9,126.9c0-0.1-0.1-0.3-0.2-0.5c-0.1-0.1-0.2-0.1-0.4-0.2c-0.1,0-0.3,0-0.4-0.1
							c-0.5-0.1-1.2-0.1-1.8-0.2c-1.3-0.1-2.6,0-3.2-0.1c-0.8,0-1.6,0-2.3,0l-0.6,0l-0.3,0c-0.1,0-0.2,0-0.3,0
							c-0.6,0.1-1.1,0.5-1.3,1.1c0,0.1-0.1,0.3-0.1,0.4l0,0.3l0,0.5c0,0.4,0,0.7,0,1.1c0,0.7,0,1.5-0.1,2.3c0,0.8-0.1,1.6-0.1,2.4
							l0,1.2l0,0.6l0,0.3c0,0.2,0,0.4,0.1,0.5c0.2,0.7,1,1.2,1.7,1.2l1.2,0c0.8,0,1.6,0,2.4,0c1.5,0,3.6-0.1,5.1-0.1
							c0.4,0,1.2-0.2,1.5-1c0.1-0.2,0.1-0.4,0.1-0.6c0-0.1,0-0.3,0-0.4c0-0.3,0-0.6,0-0.8c0-1.1,0-2.3-0.1-3c0-1.6-1.1-2.2-1.1,0.2
							c0,0.6,0,2.2,0,3.6c0,0.2,0,0.3,0,0.5c0,0.1,0,0.1-0.1,0.2c-0.1,0.1-0.2,0.1-0.3,0.1c-0.5,0-0.9,0-1,0c-1.9-0.1-3.6,0-5.3,0
							c-0.4,0-0.8,0-1.3,0l-0.6,0l-0.3,0l-0.2,0c0,0,0,0-0.1,0c-0.2,0-0.3-0.2-0.3-0.3c0-0.4,0-0.9,0.1-1.4c0.1-1.9,0.1-3.8,0.1-5.7
							l0-1.4c0-0.3,0-0.2,0-0.3c0,0,0.1-0.1,0.1-0.1l0,0l0.1,0l0.4,0l0.7,0l1.4,0c0.1,0,2.1,0,3.9-0.1c0.5,0,0.9-0.1,1.3-0.1
							c0.2,0,0.4,0,0.6-0.1c0.2,0,0.4,0,0.4-0.1C158.7,126.9,158.9,127.1,158.9,126.9z"/>
					</g>
				</g>
			</g>
			<g>
				<g>
					<g>
						<g>
							<path fill="#505A78" d="M205.7,131.9c-0.9-0.7-5-0.6-6.2-0.6c-3.1-0.1-5.8,0-8.9-0.1c-3.1-0.1-6.3-0.2-9.4-0.1
								c-1.5,0-3.5,0.1-5,0.1c-1,0-4.3,0.1-5.7,0.1c-1.6,0-2.1,1.1,0.2,1.1c1.3,0,6,0,6.5,0c3.8,0.1,6.6-0.1,10.4,0.1
								c3.7,0.2,7.5,0,11.2,0.1C199.1,132.6,206.5,132.5,205.7,131.9z"/>
						</g>
					</g>
				</g>
			</g>
			<g>
				<path fill="#FFFFFF" d="M158.3,154.5h-8.7c-0.5,0-0.9-0.4-0.9-0.9v-8.7c0-0.5,0.4-0.9,0.9-0.9h8.7c0.5,0,0.9,0.4,0.9,0.9v8.7
					C159.2,154,158.8,154.5,158.3,154.5z"/>
				<g>
					<path fill="#505A78" d="M158.9,154.8c0.3-0.1,0.5-0.3,0.6-0.5c0.1-0.1,0.2-0.2,0.2-0.4c0-0.1,0.1-0.4,0.1-0.4
						c0-0.2,0-0.4,0-0.6c0-0.4,0-0.7,0.1-1c0-0.6,0.1-1.1,0.1-1.5c0-1.3,0.1-2.5,0.1-3.7c0-0.6,0-1.2,0-1.9c0-0.5-0.2-1.1-0.6-1.5
						c-0.2-0.2-0.5-0.3-0.8-0.4c-0.1,0-0.3,0-0.4,0l-0.2,0c-1.2,0-2.4,0.2-3.7,0.1c-1,0-2-0.2-3-0.3c-0.5,0-1,0-1.5,0.1l-0.2,0
						c-0.1,0-0.2,0-0.3,0c-0.2,0-0.4,0.1-0.6,0.3c-0.4,0.2-0.7,0.6-0.8,1.1c0,0.1-0.1,0.2-0.1,0.3c0,0.1,0,0.2,0,0.3l0,0.4l0,0.7
						l0,1.5c0,1-0.1,1.9-0.1,2.9c0,0.5,0,1,0.1,1.6c0,0.3,0,0.6,0,0.8l0,0.4l0,0.2c0,0.1,0,0.2,0,0.4c0.1,0.5,0.4,0.9,0.8,1.1
						c0.4,0.3,1,0.2,1.2,0.2c0.5,0,1.1,0,1.5,0c0.6,0,2.1,0,3.6,0c0.8,0,1.6-0.1,2.2-0.1c0.5,0,0.8-0.1,1.1-0.1v-1.1
						c-0.2,0-0.5,0-1.1,0c-0.6,0-1.9,0-3,0c-1.9,0-3.8,0-4.1,0l-0.4,0l-0.1,0c0,0-0.1,0-0.1,0c-0.1,0-0.2-0.1-0.2-0.2
						c0,0,0-0.1,0-0.1l0-0.4c0-0.3,0-0.5,0-0.8c0-1.1,0.1-2.2,0-3.3c0-1.1-0.1-2.2-0.1-3.3c0-0.3,0-0.5,0-0.8c0-0.2,0-0.2,0-0.2
						c0,0,0-0.1,0.1-0.1c0.1-0.1,0.1-0.1,0.2,0c0,0,0.1,0,0.1,0l0.2,0l0.4,0c1.2,0.1,2.4,0,3.5,0c1.2,0,2.4,0.1,3.5,0.1l0.4,0l0.2,0
						l0.1,0l0,0c0,0,0.1,0,0.1,0c0.1-0.1,0.1,0.8,0.1,1.3c0,1.2-0.3,2.4-0.3,3.5c0,0.6,0.1,1.4,0.2,3c0,0.2,0,0.5,0,0.7
						c0,0.3,0.1,0.2,0,0.3c0,0.1-0.1,0.2-0.2,0.2v1.1C158.5,154.9,158.7,154.9,158.9,154.8z"/>
				</g>
			</g>
			<g>
				<g>
					<g>
						<g>
							<path fill="#505A78" d="M213.5,149.2c-1.1-0.7-6.1-0.6-7.5-0.6c-3.8-0.1-7,0-10.8-0.1c-3.8-0.1-7.7-0.2-11.4-0.1
								c-1.8,0-4.3,0.1-6.1,0.1c-1.2,0-5.3,0.1-6.9,0.1c-1.9,0-2.6,1.1,0.2,1.1c1.5,0,7.3,0,7.9,0c4.6,0.1,8-0.1,12.6,0.1
								c4.5,0.2,9.1,0,13.6,0.1C205.4,150,214.4,149.9,213.5,149.2z"/>
						</g>
					</g>
				</g>
			</g>
			<g>
				<path fill="#FFFFFF" d="M158.3,171.8h-8.7c-0.5,0-0.9-0.4-0.9-0.9v-8.7c0-0.5,0.4-0.9,0.9-0.9h8.7c0.5,0,0.9,0.4,0.9,0.9v8.7
					C159.2,171.4,158.8,171.8,158.3,171.8z"/>
				<g>
					<path fill="#505A78" d="M158.9,172.2c0.3-0.1,0.5-0.3,0.6-0.5c0.1-0.1,0.2-0.2,0.2-0.4c0-0.1,0.1-0.4,0.1-0.4
						c0-0.2,0-0.4,0-0.6c0-0.4,0-0.7,0.1-1c0-0.6,0.1-1.1,0.1-1.5c0-1.3,0.1-2.5,0.1-3.7c0-0.6,0-1.2,0-1.9c0-0.5-0.2-1.1-0.6-1.5
						c-0.2-0.2-0.5-0.3-0.8-0.4c-0.1,0-0.3,0-0.4,0l-0.2,0c-1.2,0-2.4,0.2-3.7,0.1c-1,0-2-0.2-3-0.3c-0.5,0-1,0-1.5,0.1l-0.2,0
						c-0.1,0-0.2,0-0.3,0c-0.2,0-0.4,0.1-0.6,0.3c-0.4,0.2-0.7,0.6-0.8,1.1c0,0.1-0.1,0.2-0.1,0.3c0,0.1,0,0.2,0,0.3l0,0.4l0,0.7
						l0,1.5c0,1-0.1,1.9-0.1,2.9c0,0.5,0,1,0.1,1.6c0,0.3,0,0.6,0,0.8l0,0.4l0,0.2c0,0.1,0,0.2,0,0.4c0.1,0.5,0.4,0.9,0.8,1.1
						c0.4,0.3,1,0.2,1.2,0.2c0.5,0,1.1,0,1.5,0c0.6,0,2.1,0,3.6,0c0.8,0,1.6-0.1,2.2-0.1c0.5,0,0.8-0.1,1.1-0.1v-1.1
						c-0.2,0-0.5,0-1.1,0c-0.6,0-1.9,0-3,0c-1.9,0-3.8,0-4.1,0l-0.4,0l-0.1,0c0,0-0.1,0-0.1,0c-0.1,0-0.2-0.1-0.2-0.2
						c0,0,0-0.1,0-0.1l0-0.4c0-0.3,0-0.5,0-0.8c0-1.1,0.1-2.2,0-3.3c0-1.1-0.1-2.2-0.1-3.3c0-0.3,0-0.5,0-0.8c0-0.2,0-0.2,0-0.2
						c0,0,0-0.1,0.1-0.1c0.1-0.1,0.1-0.1,0.2,0c0,0,0.1,0,0.1,0l0.2,0l0.4,0c1.2,0.1,2.4,0,3.5,0c1.2,0,2.4,0.1,3.5,0.1l0.4,0l0.2,0
						l0.1,0l0,0c0,0,0.1,0,0.1,0c0.1-0.1,0.1,0.8,0.1,1.3c0,1.2-0.3,2.4-0.3,3.5c0,0.6,0.1,1.4,0.2,3c0,0.2,0,0.5,0,0.7
						c0,0.3,0.1,0.2,0,0.3c0,0.1-0.1,0.2-0.2,0.2v1.1C158.5,172.3,158.7,172.3,158.9,172.2z"/>
				</g>
			</g>
			<g>
				<g>
					<g>
						<g>
							<path fill="#505A78" d="M209.6,166.6c-1-0.7-5.5-0.6-6.8-0.6c-3.5-0.1-6.4,0-9.8-0.1c-3.4-0.1-7-0.2-10.4-0.1
								c-1.7,0-3.9,0.1-5.6,0.1c-1.1,0-4.8,0.1-6.3,0.1c-1.7,0-2.4,1.1,0.2,1.1c1.4,0,6.6,0,7.2,0c4.2,0.1,7.3-0.1,11.5,0.1
								c4.1,0.2,8.3,0,12.4,0.1C202.2,167.3,210.5,167.3,209.6,166.6z"/>
						</g>
					</g>
				</g>
			</g>
			<g>
				<g>
					<g>
						<path fill="#505A78" d="M161.7,126.5c-0.8-0.3-1.9,0.9-2.2,1.2c-1,0.8-1.7,1.6-2.7,2.3c-1,0.8-1.9,1.6-2.8,2.5
							c-0.6,0.5-0.3,0.5-0.5,0.5c0,0,0,0,0,0c-0.3-0.2-1.3-1.1-1.7-1.5c-0.4-0.4-1.4,0.2-0.7,0.8c0.4,0.4,1.6,1.7,1.8,1.9
							c0.2,0.2,0.2,0.2,0.2,0.2c0.2,0.2,0.6,0.2,0.8,0.1c0.2-0.1,0.5-0.4,0.7-0.6c0.2-0.2,0.5-0.5,0.7-0.7c0.5-0.5,0.9-0.9,1.5-1.4
							c1.2-0.9,2.2-2.1,3.3-3C160.3,128.9,162.4,126.8,161.7,126.5z"/>
					</g>
				</g>
			</g>
		</g>
	</g>
	<g>
		<g>
			<g>
				<path fill="#505A78" d="M266.7,178.9c0.1-2,0-3.7,0.2-5.7c0.2-2,0.2-4.1,0.2-6c0-1-0.1-2.3-0.2-3.2c0-0.5-0.1-1.8-0.1-2.8
					c0-0.4,0-0.7,0-1h-1.4c0,0.3,0,0.6,0,1c0,1.2,0,3.1,0,3.4c-0.1,2.4,0.2,4.2-0.1,6.6c-0.3,2.4,0,4.8-0.1,7.2c0,0.1,0,1.5,0.2,2.8
					c0,0.2,0,0.5,0.1,0.8h1.4c0-0.3,0.1-0.5,0.1-0.8C266.9,180.4,266.7,179.3,266.7,178.9z"/>
			</g>
		</g>
		<g>
			<g>
				<g>
					<g>
						<path fill="#505A78" d="M268.9,162.4c-0.1-0.4-0.2-0.5-0.4-0.7c-0.2-0.1-0.4-0.3-0.4-0.3c-0.2-0.2-0.4-0.4-0.6-0.6
							c-0.1-0.1-0.2-0.2-0.3-0.3c-0.1-0.2-0.2-0.3-0.4-0.5c-0.3-0.3-0.5-0.7-0.8-1c-0.5,0.5-0.9,1-1.4,1.4c-0.2,0.2-0.4,0.5-0.6,0.7
							c-0.1,0.1-0.6,0.5-0.7,0.6c-0.1,0-0.4,1.2,0.3,1.1c0.4-0.1,1.2-0.7,1.3-0.7c0.3-0.2,0.6-0.5,0.8-0.7c0.2-0.2,0.2-0.2,0.2-0.2
							c0,0,0.1,0,0.1,0l0,0c0,0.1,0,0.1,0,0.1c0,0,0,0,0,0l0.2,0.2c0.3,0.3,0.6,0.5,0.9,0.8c0,0,0.4,0.3,0.8,0.4
							C268.5,162.9,269.1,162.7,268.9,162.4z"/>
					</g>
				</g>
			</g>
			<g>
				<g>
					<g>
						<path fill="#505A78" d="M270.3,167.7c-0.1-0.4-0.4-0.5-0.7-0.7c-0.3-0.2-0.6-0.3-0.7-0.4c-0.7-0.5-1.2-1-1.7-1.8
							c-0.3-0.5-0.7-1-1.1-1.6c-0.4,0.5-0.8,1-1.2,1.5c-0.2,0.2-0.4,0.5-0.6,0.7c-0.3,0.3-0.7,0.7-1,1c-0.2,0.2-0.9,0.7-1.2,0.7
							c-0.3,0-0.6,1.2,0.3,1.1c0.2,0,0.8-0.2,1.2-0.4c0.4-0.2,0.8-0.5,0.8-0.5c0.5-0.3,0.9-0.7,1.2-1.1l0.2-0.3l0.1-0.1l0,0
							c0,0,0.1-0.1,0.1,0c0,0,0,0,0,0c0,0.1,0,0.1,0,0.2c0,0,0,0,0,0l0.1,0.1l0.1,0.2l0.3,0.3c0.4,0.4,0.9,0.8,1.4,1.2
							c0,0,0.6,0.4,1.2,0.5C269.9,168.2,270.5,168,270.3,167.7z"/>
					</g>
				</g>
			</g>
			<g>
				<g>
					<g>
						<path fill="#505A78" d="M271.8,172.9c-0.2-0.4-0.6-0.5-1-0.7c-0.4-0.2-0.9-0.4-1-0.5c-0.9-0.7-1.7-1.4-2.3-2.4
							c-0.3-0.4-0.8-1.3-1.3-2.1c-0.4,0.7-1,1.5-1.4,2c-0.2,0.3-0.5,0.6-0.7,0.9c-0.4,0.4-0.9,1-1.3,1.3c-0.1,0.1-0.5,0.4-0.8,0.5
							c-0.4,0.2-0.8,0.3-1,0.3c-0.5,0-0.9,1.2,0.2,1.1c0.3-0.1,1-0.2,1.5-0.5c0.6-0.3,1-0.6,1.1-0.7c0.7-0.4,1.2-1,1.6-1.5
							c0.2-0.2,0.4-0.5,0.6-0.7c0.1-0.1,0.1-0.1,0.2-0.1c0,0,0,0,0,0c0,0.1,0,0.1,0,0.2c0.2,0.3,0.5,0.6,0.8,0.9
							c0.6,0.6,1.2,1.1,1.8,1.6c0,0,0.8,0.5,1.6,0.7C271.2,173.5,271.9,173.3,271.8,172.9z"/>
					</g>
				</g>
			</g>
			<g>
				<g>
					<g>
						<path fill="#505A78" d="M271.8,178.1c-0.2-0.4-0.6-0.5-1-0.7c-0.4-0.2-0.9-0.4-1-0.5c-0.9-0.7-1.7-1.4-2.3-2.4
							c-0.3-0.4-0.8-1.3-1.3-2.1c-0.4,0.7-1,1.5-1.4,2c-0.2,0.3-0.5,0.6-0.7,0.9c-0.4,0.4-0.9,1-1.3,1.3c-0.1,0.1-0.5,0.4-0.8,0.5
							c-0.4,0.2-0.8,0.3-1,0.3c-0.5,0-0.9,1.2,0.2,1.1c0.3-0.1,1-0.2,1.5-0.5c0.6-0.3,1-0.6,1.1-0.7c0.7-0.4,1.2-1,1.6-1.5
							c0.2-0.2,0.4-0.5,0.6-0.7c0.1-0.1,0.1-0.1,0.2-0.1c0,0,0,0,0,0c0,0.1,0,0.1,0,0.2c0.2,0.3,0.5,0.6,0.8,0.9
							c0.6,0.6,1.2,1.1,1.8,1.6c0,0,0.8,0.5,1.6,0.7C271.2,178.7,271.9,178.5,271.8,178.1z"/>
					</g>
				</g>
			</g>
		</g>
	</g>
	<g>
		<g>
			<g>
				<path fill="#505A78" d="M106.8,179.5c0.1-1.5,0-2.8,0.2-4.3c0.2-1.5,0.2-3,0.2-4.5c0-0.7-0.1-1.7-0.2-2.4c0-0.4-0.1-1.3-0.1-2.1
					c0-0.4,0-0.7,0-1h-1.4c0,0.3,0,0.6,0,1c0,0.9,0,2.4,0,2.6c-0.1,1.8,0.2,3.2-0.1,5c-0.3,1.8,0,3.6-0.1,5.4c0,0.1,0,1.1,0.2,2.1
					c0,0.2,0,0.5,0.1,0.8h1.4c0-0.3,0.1-0.5,0.1-0.8C106.9,180.6,106.7,179.8,106.8,179.5z"/>
			</g>
		</g>
		<g>
			<g>
				<g>
					<g>
						<path fill="#505A78" d="M109.3,167.7c-0.1-0.4-0.2-0.5-0.4-0.7c-0.2-0.2-0.4-0.3-0.5-0.4c-0.2-0.2-0.5-0.4-0.7-0.6
							c-0.1-0.1-0.2-0.2-0.3-0.3l-0.2-0.2c-0.1-0.1-0.1-0.2-0.2-0.3c-0.3-0.4-0.6-0.7-0.9-1.1c-0.3,0.3-0.6,0.7-1,1
							c-0.2,0.2-0.4,0.4-0.6,0.6c-0.2,0.2-0.5,0.5-0.7,0.8c-0.1,0.2-0.7,0.6-0.8,0.6c-0.1,0-0.5,1.2,0.3,1.1
							c0.4-0.1,1.4-0.8,1.5-0.8c0.7-0.4,1.3-1.4,1.3-1.1l0,0c-0.3,0,0.7,0.8,1.4,1.3c0,0,0.4,0.3,0.9,0.4
							C108.8,168.2,109.5,168,109.3,167.7z"/>
					</g>
				</g>
			</g>
			<g>
				<g>
					<g>
						<path fill="#505A78" d="M110.9,173c-0.2-0.4-0.5-0.5-0.8-0.7c-0.3-0.2-0.7-0.4-0.8-0.5c-0.8-0.6-1.4-1.2-2-2
							c-0.3-0.4-0.8-1.1-1.2-1.7c-0.4,0.5-0.9,1.2-1.3,1.6c-0.2,0.2-0.4,0.5-0.7,0.7c-0.3,0.4-0.8,0.8-1.1,1.1
							c-0.2,0.2-1.1,0.8-1.4,0.8c-0.4,0-0.7,1.2,0.3,1.1c0.3-0.1,0.8-0.2,1.3-0.5c0.5-0.3,0.8-0.5,0.9-0.6c0.6-0.4,1-0.8,1.4-1.3
							c0.2-0.2,0.3-0.4,0.5-0.6c0.1-0.1,0.1-0.1,0.1-0.1c0,0,0,0,0,0c0,0.1,0,0.1,0,0.2c0.1,0.2,0.4,0.5,0.6,0.7
							c0.5,0.5,1,0.9,1.5,1.4c0,0,0.6,0.5,1.4,0.6C110.4,173.5,111.1,173.3,110.9,173z"/>
					</g>
				</g>
			</g>
			<g>
				<g>
					<g>
						<path fill="#505A78" d="M110.9,177.8c-0.2-0.4-0.5-0.5-0.8-0.7c-0.3-0.2-0.7-0.4-0.8-0.5c-0.8-0.6-1.4-1.2-2-2
							c-0.3-0.4-0.8-1.1-1.2-1.7c-0.4,0.5-0.9,1.2-1.3,1.6c-0.2,0.2-0.4,0.5-0.7,0.7c-0.3,0.4-0.8,0.8-1.1,1.1
							c-0.2,0.2-1.1,0.8-1.4,0.8c-0.4,0-0.7,1.2,0.3,1.1c0.3-0.1,0.8-0.2,1.3-0.5c0.5-0.3,0.8-0.5,0.9-0.6c0.6-0.4,1-0.8,1.4-1.3
							c0.2-0.2,0.3-0.4,0.5-0.6c0.1-0.1,0.1-0.1,0.1-0.1c0,0,0,0,0,0c0,0.1,0,0.1,0,0.2c0.1,0.2,0.4,0.5,0.6,0.7
							c0.5,0.5,1,0.9,1.5,1.4c0,0,0.6,0.5,1.4,0.6C110.4,178.4,111.1,178.1,110.9,177.8z"/>
					</g>
				</g>
			</g>
		</g>
	</g>
	<g>
		<g>
			<g>
				<path fill="#505A78" d="M254,179.7c0.1-1.3,0-2.4,0.2-3.7c0.2-1.3,0.2-2.6,0.2-3.9c0-0.6-0.1-1.5-0.2-2.1c0-0.3-0.1-1.2-0.1-1.8
					c0-0.4,0-0.7,0-1h-1.4c0,0.3,0,0.6,0,1c0,0.8,0,2,0,2.2c-0.1,1.6,0.2,2.8-0.1,4.3c-0.3,1.5,0,3.1-0.1,4.7c0,0.1,0,1,0.2,1.8
					c0,0.2,0,0.5,0.1,0.8h1.4c0-0.3,0.1-0.5,0.1-0.8C254.2,180.7,254,180,254,179.7z"/>
			</g>
		</g>
		<g>
			<g>
				<g>
					<g>
						<path fill="#505A78" d="M256.2,169.4c-0.1-0.4-0.2-0.5-0.4-0.7c-0.2-0.1-0.4-0.3-0.4-0.3c-0.2-0.2-0.4-0.4-0.6-0.6
							c-0.1-0.1-0.2-0.2-0.3-0.3c-0.1-0.2-0.2-0.3-0.4-0.5c-0.3-0.3-0.5-0.7-0.8-1c-0.5,0.5-0.9,1-1.4,1.4c-0.2,0.2-0.4,0.5-0.6,0.7
							c-0.1,0.1-0.6,0.5-0.7,0.6c-0.1,0-0.4,1.2,0.3,1.1c0.4-0.1,1.2-0.7,1.3-0.7c0.3-0.2,0.6-0.5,0.8-0.7c0.2-0.2,0.2-0.2,0.2-0.2
							c0,0,0.1,0,0.1,0l0,0c0,0.1,0,0.1,0,0.1c0,0,0,0,0,0l0.2,0.2c0.3,0.3,0.6,0.5,0.9,0.8c0,0,0.4,0.3,0.8,0.4
							C255.8,169.9,256.4,169.8,256.2,169.4z"/>
					</g>
				</g>
			</g>
			<g>
				<g>
					<g>
						<path fill="#505A78" d="M257.6,173.6c-0.1-0.4-0.4-0.5-0.7-0.7c-0.3-0.2-0.6-0.3-0.7-0.4c-0.7-0.5-1.2-1-1.7-1.8
							c-0.3-0.5-0.7-1-1.1-1.6c-0.4,0.5-0.8,1-1.2,1.5c-0.2,0.2-0.4,0.5-0.6,0.7c-0.3,0.3-0.7,0.7-1,1c-0.2,0.2-0.9,0.7-1.2,0.7
							c-0.3,0-0.6,1.2,0.3,1.1c0.2,0,0.8-0.2,1.2-0.4c0.4-0.2,0.8-0.5,0.8-0.5c0.5-0.3,0.9-0.7,1.2-1.1l0.2-0.3l0.1-0.1l0,0
							c0,0,0.1-0.1,0.1,0c0,0,0,0,0,0c0,0.1,0,0.1,0,0.2c0,0,0,0,0,0l0.1,0.1l0.1,0.2l0.3,0.3c0.4,0.4,0.9,0.8,1.4,1.2
							c0,0,0.6,0.4,1.2,0.5C257.2,174.1,257.8,173.9,257.6,173.6z"/>
					</g>
				</g>
			</g>
			<g>
				<g>
					<g>
						<path fill="#505A78" d="M257.6,177.6c-0.1-0.4-0.4-0.5-0.7-0.7c-0.3-0.2-0.6-0.3-0.7-0.4c-0.7-0.5-1.2-1-1.7-1.8
							c-0.3-0.5-0.7-1-1.1-1.6c-0.4,0.5-0.8,1-1.2,1.5c-0.2,0.2-0.4,0.5-0.6,0.7c-0.3,0.3-0.7,0.7-1,1c-0.2,0.2-0.9,0.7-1.2,0.7
							c-0.3,0-0.6,1.2,0.3,1.1c0.2,0,0.8-0.2,1.2-0.4c0.4-0.2,0.8-0.5,0.8-0.5c0.5-0.3,0.9-0.7,1.2-1.1l0.2-0.3l0.1-0.1l0,0
							c0,0,0.1-0.1,0.1,0c0,0,0,0,0,0c0,0.1,0,0.1,0,0.2c0,0,0,0,0,0l0.1,0.1l0.1,0.2l0.3,0.3c0.4,0.4,0.9,0.8,1.4,1.2
							c0,0,0.6,0.4,1.2,0.5C257.2,178.1,257.8,177.9,257.6,177.6z"/>
					</g>
				</g>
			</g>
		</g>
	</g>
	<g>
		<g>
			<path fill="#505A78" d="M82.9,103.3c0.4,0.4,1.5,0.6,2.8,0.7c0.9,0.1,1.9,0.1,2.8,0.1c0.4,0,0.8,0,1.2,0c0.6,0.1,1-0.2,1.3-0.4
				c0.1-0.2,0.2-0.3,0.3-0.5c0.1-0.2,0.1-0.2,0.1-0.3c0.3-0.6,0.9-1,1.6-1.2c0.3-0.1,0.6-0.1,0.9,0c0.2,0.1,0.3,0.1,0.5,0.2
				c0,0,0.3,0.1,0.4,0.2l0.4,0.2c0.5,0.4,1.3-0.1,1.5-0.6c0.1-0.3,0.1-0.7,0.2-1.1l0.1-0.6c0.1-0.7,0.4-1.5,0.8-2.2
				c0.5-0.7,1-1.3,1.7-1.6c0.7-0.3,1.5-0.5,2.4-0.5c1.7,0,3.2,0.9,4.1,2.2c0.4,0.5,0.8,1.2,1,1.9c0.1,0.2,0.1,0.4,0.2,0.6l0.2,0.6
				l0.1,0.3c0,0.1,0.1,0.1,0.1,0.2c0.1,0.1,0.2,0.3,0.3,0.3c0.1,0.1,0.3,0.2,0.5,0.2c0.1,0,0.3,0,0.4,0c0.2-0.1,0.3-0.1,0.5-0.2
				c0.2-0.1,0.4-0.2,0.5-0.2c0.1,0,0.2-0.1,0.3-0.1c0.2-0.1,0.3-0.1,0.5-0.1c0.4-0.1,1.1-0.2,1.6,0.2c0.3,0.2,0.5,0.6,0.6,1l0.1,0.3
				c0.1,0.2,0.1,0.4,0.2,0.6c0.2,0.4,0.5,0.6,0.9,0.6c0.1,0,0.2,0,0.3,0c0.7,0,1.1,0,1.5,0c1.9,0,2.6-1.4-0.2-1.4c-0.2,0-0.5,0-1,0
				c0,0,0,0,0,0c-0.1,0-0.1-0.1-0.1-0.1c0-0.1-0.1-0.2-0.1-0.3c0-0.2-0.1-0.4-0.2-0.6c-0.3-0.7-1-1.6-1.9-1.8
				c-0.9-0.3-1.7-0.2-2.2,0c-0.3,0.1-0.5,0.1-0.7,0.2c-0.1,0-0.1,0-0.1,0l0,0c-0.1,0-0.1,0.1-0.2,0c0-0.1,0-0.1,0-0.2l0,0l-0.1-0.2
				c0-0.1-0.1-0.3-0.1-0.4c-0.1-0.3-0.2-0.5-0.3-0.8c-0.5-1-1.1-2-2-2.8c-0.9-0.8-1.9-1.3-3.1-1.6c-1.2-0.2-2.4-0.3-3.7,0.1
				c-1.3,0.3-2.5,1.2-3.3,2.4c-0.7,1.1-1.1,2.5-1.2,3.7c0,0.1,0,0.1,0,0.1l0,0l0,0c0,0,0,0,0,0l0,0l0,0l0,0l-0.1,0
				c-0.3-0.1-0.7-0.3-1.1-0.3c-0.8-0.1-1.6,0-2.3,0.4c-0.7,0.4-1.3,0.9-1.7,1.5c0,0-0.1,0.1-0.1,0.2c0,0.1-0.1,0.1-0.1,0.2
				c0,0.1-0.1,0.2-0.1,0.2l0,0c0,0,0,0,0,0c-0.2,0-0.4,0-0.6,0c-1,0-2.3,0.1-3.3,0.2C83.9,102.8,82.5,103,82.9,103.3z"/>
		</g>
	</g>
	<g>
		<g>
			<path fill="#505A78" d="M247.5,128.9c0.4,0.4,1.5,0.6,2.8,0.7c1.6,0.1,3.6,0.1,4.3,0.1c0.6,0,1.1,0,1.7,0c0.2,0,0.8,0.1,1.1-0.1
				c0.4-0.2,0.6-0.7,0.7-0.9c0.9-1.8,2.6-2.9,4.7-2.7c1.5,0.1,3,0.7,4,1.9c0.5,0.6,0.9,1.2,1.3,1.9c0.2,0.3,0.3,0.7,0.4,1.1
				c0.1,0.2,0.1,0.4,0.2,0.5c0,0.1,0.1,0.4,0.1,0.6c0,0.2,0.1,0.4,0.2,0.5c0.1,0.1,0.2,0.3,0.3,0.4c0.1,0.1,0.3,0.2,0.5,0.2
				c0.3,0.1,0.7,0,1.1-0.2c0.2-0.1,0.3-0.2,0.5-0.2c0.1,0,0.1-0.1,0.2-0.1c0.1-0.1,0.3-0.1,0.4-0.2c0.3-0.1,0.6-0.1,0.8-0.2
				c0.5,0,1,0.1,1.3,0.4c0.1,0.1,0.2,0.3,0.4,0.5c0.1,0.1,0.1,0.3,0.2,0.5c0.1,0.2,0.1,0.4,0.2,0.7c0.1,0.4,0.4,0.7,0.7,0.9
				c0.2,0.1,0.4,0.1,0.6,0.2c0.1,0,0.2,0,0.3,0l0.2,0c0.5,0,0.9,0,1.3,0c0.7,0,1.2,0,1.5,0c1.9,0,2.6-1.4-0.2-1.4
				c-0.3,0-0.6,0-1.3,0c-0.4,0-1,0-1.5,0c-0.1,0-0.2,0-0.2-0.1l-0.1-0.3c0-0.2-0.1-0.3-0.2-0.5c-0.2-0.7-0.6-1.3-1.1-1.7
				c-0.4-0.4-0.9-0.5-1-0.6c-0.7-0.3-1.4-0.3-2-0.2c-0.3,0.1-0.6,0.1-0.9,0.2c-0.1,0-0.3,0.1-0.4,0.1l-0.1,0.1c-0.1,0-0.1,0.1-0.2,0
				l0-0.1l-0.1-0.2c-0.2-0.7-0.5-1.4-0.8-2c-0.7-1.3-1.6-2.5-3.1-3.5c-0.8-0.5-1.7-0.9-2.6-1c-0.9-0.1-1.9-0.2-2.8,0.1
				c-1,0.2-1.9,0.7-2.6,1.3c-0.8,0.6-1.3,1.4-1.8,2.2c-0.1,0.2-0.1,0.1-0.1,0.2c0,0,0,0,0,0l-1.2,0c-0.2,0-3,0-5.1,0.2
				C248.5,128.3,247.1,128.5,247.5,128.9z"/>
		</g>
	</g>
</g>
</svg>
