<?xml version="1.0" encoding="UTF-8"?>
<svg width="216px" height="134px" viewBox="0 0 216 134" version="1.1" xmlns="http://www.w3.org/2000/svg" xmlns:xlink="http://www.w3.org/1999/xlink">
    <!-- Generator: Sketch 47.1 (45422) - http://www.bohemiancoding.com/sketch -->
    <title>hero-transparency-reports@1x</title>
    <desc>Created with Sketch.</desc>
    <defs></defs>
    <g id="Page-1" stroke="none" stroke-width="1" fill="none" fill-rule="evenodd">
        <g id="hero-transparency-reports@1x" transform="translate(108.000000, 67.000000) scale(-1, 1) translate(-108.000000, -67.000000) ">
            <path d="M126,67.6842177 L137.234792,55.2701651 C137.539924,54.9624197 138.019221,54.9116122 138.382036,55.1485525 C140.858852,57.0260327 148.590454,60.7803101 150.764754,68.5928963 C152.75809,75.6778564 160.187175,81.4305434 163.449307,82.6418871 C163.992882,82.8236228 164.173846,83.5505657 163.811235,83.9741602 L146.838859,103.716398 C146.597119,104.019063 146.174414,104.079186 145.811803,103.898134 C143.334986,102.625984 134.999716,98.1454469 131.91923,88.1527153 C131.254785,85.9732531 129.624743,84.0349666 127.691501,82.4000283" id="Shape" fill="#FFFFFF" fill-rule="nonzero"></path>
            <path d="M127.719647,82.3689574 C127.84315,83.0361144 128.706978,84.0666153 129.509402,85.2798146 C130.250424,86.2501004 130.867244,87.2812856 131.175654,88.4342697 C131.422661,89.0405272 131.608265,89.707 131.854575,90.3139418 C132.101582,90.9201993 132.409992,91.4662416 132.656999,92.0724991 C133.767833,94.3168837 135.064272,95.9543264 135.804596,96.9246121 C137.532948,99.047882 139.50761,100.867339 141.606473,102.322767 C142.659408,103.046675 143.751104,103.714788 144.876876,104.324238 L145.309487,104.567152 L145.555797,104.688267 L145.926307,104.870281 C146.420322,105.052295 146.975739,105.052295 147.407652,104.809381 C147.65466,104.688267 147.840264,104.506253 148.024473,104.324238 L148.394983,103.96021 L149.012501,103.293053 C152.222199,99.6541395 155.492602,95.9543264 159.072112,92.0122839 C160.429954,90.5568553 161.726392,89.0405272 163.084234,87.5850986 L165.120299,85.3407141 L165.305903,85.0978005 C165.367306,84.9766859 165.490809,84.9157864 165.552212,84.7946718 C165.737817,84.6126576 165.799219,84.4306435 165.86132,84.1884142 C166.046227,83.7641708 166.046227,83.2783437 165.86132,82.8541003 C165.737817,82.4298568 165.428709,82.0651444 165.058896,81.822915 C164.873989,81.7018004 164.626284,81.6409009 164.379975,81.5197863 L164.132968,81.3979874 C164.071565,81.3979874 164.009464,81.3377722 164.009464,81.3377722 C162.651623,80.6706152 161.293781,79.7003294 160.060141,78.7293594 C158.825105,77.6988585 157.652868,76.6067738 156.603436,75.3935745 C155.554004,74.1810594 154.628774,72.9069607 153.887753,71.5726467 C153.702846,71.2093027 153.51794,70.9054897 153.332336,70.5421458 L152.900422,69.5109605 C152.660667,68.7337457 152.393026,67.9650677 152.097997,67.2063608 C151.23417,64.5979481 149.258811,61.9293201 146.975739,59.8067345 C144.630566,57.6841489 141.914883,56.0460219 139.816718,54.7117079 C139.754617,54.6514928 139.631114,54.5905933 139.569711,54.5303781 C139.50761,54.4687944 139.446207,54.4085792 139.384106,54.4085792 C139.260603,54.348364 139.1992,54.2874645 139.075696,54.2265651 C138.624015,53.9748097 138.082308,53.9305198 137.594351,54.1054504 C137.347344,54.1663499 137.101035,54.348364 136.854027,54.5912776 L136.545617,54.8937221 L136.360013,55.0757362 C136.113006,55.3186497 135.866697,55.6217785 135.619689,55.9249073 C134.570258,57.1381066 133.274517,58.53332 131.978078,59.9278492 C130.003416,62.1113342 127.966654,64.3550345 126.85582,65.6291333 C125.250971,67.3274755 125.991992,69.0860329 128.337165,66.599419 C129.571503,65.2651051 132.409992,62.1722337 135.126373,59.2606922 C135.928797,58.4122054 136.730524,57.5021348 137.470848,56.7131789 C137.656452,56.5318491 137.841358,56.2889355 138.026265,56.1069214 C138.088365,56.0460219 138.088365,55.9858067 138.211869,55.9858067 L138.396775,55.9858067 C138.520279,56.0460219 138.643783,56.1678208 138.705186,56.228036 C140.248631,57.2592212 141.359466,57.9263782 141.667876,58.1692918 C144.136552,59.867634 146.234717,61.6864066 147.839566,63.8096764 C148.086573,64.0519057 148.209379,64.3557188 148.394983,64.5979481 C148.580588,64.8408616 148.764796,65.1439904 148.888998,65.4471192 L149.382314,66.2962903 L149.752825,67.1447771 L150.122638,68.0548477 L150.431746,68.9649182 C150.678753,69.6320752 150.864357,70.2992322 151.17207,70.9663892 C151.728184,72.2398037 152.468508,73.453003 153.270933,74.6053029 C154.073357,75.7576027 154.998587,76.8496874 155.986616,77.8808726 C156.973947,78.9113735 158.084781,79.8823436 159.195616,80.7917298 C160.367853,81.7018004 161.602889,82.5502872 163.083536,83.3392431 C163.145637,83.3392431 163.20704,83.3994583 163.26914,83.3994583 C163.330543,83.3994583 163.392644,83.461042 163.392644,83.461042 C163.392644,83.461042 163.454047,83.461042 163.454047,83.5212572 C163.516148,83.5212572 163.516148,83.5814724 163.516148,83.5814724 C163.516148,83.6423719 163.454047,83.7032714 163.454047,83.7032714 L163.392644,83.824386 L163.20704,84.0666153 L162.837227,84.4908587 L161.232378,86.2501004 C160.182947,87.4024002 159.134213,88.6155996 158.022681,89.8287989 C155.924515,92.1942981 153.82635,94.6200124 151.728184,97.0464111 L148.580588,100.685325 L147.037142,102.504782 L146.481725,102.747011 L146.420322,102.686796 C143.643235,101.291582 141.173862,99.4721254 139.014293,97.2886404 C138.828689,97.1066263 137.224538,95.5902982 135.681092,93.1645838 C135.249179,92.5583263 134.940769,91.8911693 134.508855,91.2240123 L133.953438,90.1319276 L133.70643,89.5858853 L133.459423,88.9796278 C133.33592,88.6155996 133.151013,88.1913561 133.026812,87.8273279 C132.842603,87.3415008 132.656999,86.9172574 132.472092,86.4930139 C132.045962,85.65713 131.506082,84.88185 130.867244,84.1884142 C129.200992,82.5509715 127.596143,81.7018004 127.720345,82.3682731 L127.719647,82.3689574 Z" id="Shape" fill="#505A78" fill-rule="nonzero"></path>
            <path d="M139.617703,62.0032298 C139.125761,62.0630965 138.265557,62.665845 137.466498,63.449554 C136.975251,63.8114752 136.483309,64.354357 136.299178,64.5353176 C135.377134,65.3788934 134.701062,66.2238297 133.717872,67.0680857 C132.735514,67.9112692 131.811654,68.8176278 130.952435,69.7811341 C130.521639,70.2641493 130.030392,70.8668977 129.661435,71.4090992 C129.477304,71.6506068 128.924217,72.3744492 128.55526,72.7962371 C128.124464,73.2792522 127.818042,73.5799461 127.633216,73.8214537 C126.465896,75.0874976 126.957144,76.4140885 128.739391,74.5446158 C128.924217,74.3643355 129.108348,74.1228279 129.53845,73.6398128 C130.030392,73.1581583 130.952435,72.1329416 131.074726,72.0723947 C132.242741,71.0478583 132.795828,69.9620947 134.024989,69.057972 C135.254844,68.0926221 136.114353,66.8265782 137.282368,65.8013615 C137.343513,65.7414949 138.019586,65.0176525 138.449688,64.2938101 C139.371732,62.9672192 140.109645,61.9420026 139.617703,62.0025495 L139.617703,62.0032298 Z M143.550459,65.5605343 C143.059212,65.6204009 142.199009,66.2238297 141.39995,67.0075388 C140.908703,67.36946 140.416761,67.9123418 140.23263,68.0926221 C139.310586,68.9368781 138.634513,69.7811341 137.651324,70.6253902 C136.668943,71.4687923 135.745082,72.3753787 134.885887,73.3391189 C134.455091,73.8214537 133.963843,74.4242022 133.594887,74.967084 C133.410756,75.2079112 132.856974,75.9317536 132.488712,76.3542218 C132.057915,76.8365566 131.750799,77.1379309 131.566668,77.3787581 C130.399348,78.6454823 130.890595,79.9720732 132.672843,78.1026005 C132.856974,77.9216399 133.041105,77.6808127 133.471901,77.1977975 C133.963843,76.7154627 134.885192,75.6909264 135.008178,75.6303794 C136.175498,74.6051628 136.72928,73.5200795 137.95844,72.6152765 C139.187601,71.6506068 140.047804,70.3838826 141.215819,69.3593463 C141.276965,69.2987993 141.953038,68.5749569 142.383139,67.8517948 C143.305183,66.5252039 144.043096,65.4999873 143.550459,65.5605343 L143.550459,65.5605343 Z M147.484606,69.118519 C146.992664,69.1783857 146.13246,69.7811341 145.333402,70.5648432 C144.84146,70.9267644 144.350213,71.4696462 144.166082,71.6506068 C143.244038,72.4941825 142.567965,73.3391189 141.584081,74.1833749 C140.601723,75.0265584 139.677863,75.932917 138.818644,76.8964233 C138.388542,77.3794384 137.8966,77.9821869 137.528339,78.5243884 C137.343513,78.765896 136.790426,79.4897384 136.422164,79.9122065 C135.991367,80.3938611 135.684251,80.6952353 135.50012,80.9367429 C134.3328,82.2027868 134.824047,83.5293776 136.606295,81.6605853 C136.790426,81.4796247 136.974556,81.2387974 137.405353,80.7557823 C137.8966,80.2727671 138.818644,79.2482308 138.94163,79.1876838 C140.10895,78.1631475 140.662732,77.0773839 141.891892,76.1732612 C143.121052,75.2079112 143.981256,73.9418673 145.149271,72.9166507 C145.210416,72.856784 145.886489,72.1329416 146.316591,71.4090992 C147.238635,70.1430553 147.975853,69.057972 147.483911,69.1178387 L147.484606,69.118519 Z M149.63581,74.6051628 C149.143868,74.6657097 148.283664,75.2684582 147.484606,76.0521673 C146.992664,76.4140885 146.501417,76.9569703 146.317286,77.1379309 C145.394547,77.9815066 144.719169,78.8264429 143.735285,79.670699 C142.752927,80.5138824 141.829067,81.420241 140.969848,82.3837474 C140.539052,82.8667625 140.047804,83.469511 139.679543,84.0117125 C139.494717,84.25322 138.94163,84.9770624 138.572673,85.3988503 C138.142571,85.8818654 137.835455,86.1825593 137.651324,86.4240669 C136.484004,87.6901108 136.975251,89.0167017 138.757499,87.147229 C138.94163,86.9669487 139.125761,86.7254411 139.556557,86.242426 C140.047804,85.7607715 140.969848,84.7355549 141.092139,84.6750079 C142.260154,83.6504716 142.813936,82.564708 144.043096,81.6605853 C145.272257,80.6952353 146.13246,79.4291914 147.29978,78.4039748 C147.361621,78.3441081 148.037693,77.6202657 148.467795,76.8964233 C149.389839,75.5698324 150.127057,74.5446158 149.635115,74.6051628 L149.63581,74.6051628 Z M152.462392,79.3087778 C151.971145,79.3686444 151.110247,79.9720732 150.311188,80.7557823 C149.819941,81.1177035 149.327999,81.6605853 149.143868,81.8408656 C148.221824,82.6851216 147.545751,83.5293776 146.562562,84.3736337 C145.580181,85.2170358 144.65632,86.1236222 143.797125,87.0873623 C143.366329,87.5696972 142.875081,88.1724456 142.506125,88.7153274 C142.321994,88.956835 141.768907,89.6799971 141.39995,90.1024653 C140.969848,90.5848001 140.662732,90.8861743 140.477906,91.1270016 C139.310586,92.3937258 139.801833,93.7203167 141.584081,91.850844 C141.768907,91.6698834 141.953038,91.4290561 142.383139,90.946041 C142.875081,90.4637062 143.797125,89.4391698 143.920111,89.3786229 C145.087431,88.3534062 145.640518,87.2683229 146.869679,86.3635199 C148.099534,85.3988503 148.959737,84.1321261 150.127057,83.1075898 C150.188898,83.0470428 150.86497,82.3238807 151.294378,81.6000383 C152.278262,80.3339944 152.954334,79.2482308 152.462392,79.3087778 L152.462392,79.3087778 Z M155.842757,83.5293776 C155.350815,83.5899246 154.490611,84.1926731 153.691553,84.9770624 C153.200305,85.3383033 152.708363,85.8818654 152.524233,86.0621457 C151.602189,86.9057214 150.926116,87.7506578 149.942927,88.5949138 C148.960568,89.4380973 148.036708,90.3444559 147.17749,91.3079622 C146.746693,91.7909773 146.255446,92.3937258 145.886489,92.9366076 C145.702358,93.1774349 145.149271,93.9012773 144.780315,94.3230651 C144.349518,94.8060803 144.043096,95.1067742 143.858271,95.3482818 C142.690951,96.6143257 143.182198,97.9409165 144.964445,96.0721242 C145.149271,95.8911636 145.333402,95.6503363 145.763504,95.1673212 C146.255446,94.6849863 147.17749,93.6597697 147.29978,93.599903 C148.467795,92.5746864 149.020883,91.4889228 150.250043,90.5848001 C151.479898,89.6201304 152.339407,88.3534062 153.507422,87.3281896 C153.568567,87.2683229 154.24464,86.5444805 154.674742,85.8206381 C155.596786,84.4940473 156.334699,83.469511 155.842757,83.5293776 L155.842757,83.5293776 Z" id="Shape" fill="#505A78" fill-rule="nonzero"></path>
            <path d="M170.042975,95.7431752 L178.537119,68.5873186 C178.659402,68.1556101 179.087045,67.9084221 179.514688,68.031668 C182.631165,68.7105644 191.308388,68.8950849 196.563773,75.1910659 C201.390823,80.9306999 210.618663,83.0906349 214.101297,82.7821723 C214.712709,82.7202012 215.140353,83.2765481 214.957274,83.8934735 L207.685264,109.382378 C207.556912,109.748674 207.215381,109.995301 206.829977,110 C204.01817,109.876058 194.486352,109.259133 187.39742,101.358867 C183.425656,96.9157512 174.259304,96.6072885 170.837466,96.8537802 C170.28754,96.9157512 169.859897,96.2981295 170.042975,95.7431752 Z" id="Shape" fill="#FFFFFF" fill-rule="nonzero"></path>
            <path d="M169.040599,96.5357658 C169.101638,96.7171965 169.16337,96.8986271 169.286142,97.0200356 C169.388337,97.1205268 169.490531,97.2210184 169.592724,97.3215105 L169.653763,97.3822148 L169.715496,97.3822148 C169.776535,97.3822148 169.776535,97.442919 169.838268,97.442919 C169.961039,97.5029412 170.14485,97.5636454 170.267621,97.6243497 L172.292313,97.6243497 C173.703146,97.6243497 175.113979,97.7450761 176.402734,97.9265067 C177.690796,98.1079373 178.85678,98.3493901 179.838259,98.591525 C180.819738,98.8329778 181.617407,99.1351349 182.169533,99.3165655 C183.212745,99.6794268 184.132491,100.163014 184.991893,100.768011 C185.850601,101.372325 186.464459,102.037343 187.262127,102.883792 C188.783744,104.500439 190.541149,105.885839 192.4768,106.994628 C196.402718,109.29184 200.821109,110.501151 205.299152,110.924716 L206.035782,110.984738 C206.219592,110.984738 206.771024,111.045443 207.201072,110.924716 C207.631119,110.803308 207.99874,110.561855 208.244284,110.138289 C208.367055,109.956859 208.428094,109.775428 208.489827,109.533975 L208.611905,109.111092 C209.471306,106.027453 210.268975,102.823088 211.311493,99.4979962 C212.293666,96.2336088 213.520689,93.0292435 214.502168,89.7648562 C214.86979,88.6162501 215.177065,87.4069399 215.483648,86.1976297 L215.729191,85.2904765 L215.851963,84.9282972 C215.913002,84.8075708 215.913002,84.6261402 215.974734,84.5054138 C216.035773,84.2025747 215.974734,83.9611219 215.913002,83.718987 C215.79023,83.1746951 215.421915,82.7518116 214.931522,82.5096767 C214.68464,82.3862582 214.410766,82.3241996 214.133853,82.3289282 L213.336185,82.3289282 C212.477477,82.3289282 211.495998,82.2675419 210.636596,82.1474975 C207.323843,81.5425014 204.072129,80.4545996 201.249769,78.7617017 C199.838936,77.9159348 198.550874,76.8873731 197.507662,75.7387671 L196.648955,74.8316139 C196.341679,74.5294568 196.035096,74.1672776 195.728514,73.8644385 C195.421932,73.5622815 195.053617,73.2601244 194.685302,72.9572853 C194.317681,72.7158325 193.949366,72.4136755 193.581051,72.1722227 C192.108485,71.2043652 190.329337,70.3579163 188.427417,69.7536022 C186.525498,69.1492881 184.439074,68.7864268 182.476115,68.4842698 C181.494636,68.3635434 180.513156,68.2421349 179.592716,68.0613863 C179.469944,68.0613863 179.163362,68 178.979551,68 C178.795047,68 178.549504,68 178.365693,68.0613863 C177.998072,68.1821127 177.629757,68.4235655 177.445946,68.7257226 C177.200403,69.0285617 177.138671,69.5721715 177.077632,69.69358 C177.015899,69.9350328 176.95486,70.1164634 176.893127,70.3585983 C176.341002,72.1115184 175.788876,73.8644385 175.29779,75.3759058 C174.623586,77.4923693 173.089981,82.3289282 171.555683,87.164805 C170.758014,89.6441298 169.960346,92.4849516 169.347181,94.5407108 C169.224409,95.0850028 169.101638,95.447864 169.040599,95.8100432 L170.267621,96.1729045 C170.32866,95.9314517 170.451432,95.6292947 170.696975,94.9642764 C171.371872,92.9085171 172.659934,88.857703 173.825224,85.16975 C175.850609,78.8824281 177.813568,72.7158325 178.181189,71.6279307 C178.365693,71.143661 178.488465,70.6607554 178.672969,70.2371899 L178.795047,69.7536022 L178.979551,69.5721715 C179.04059,69.5121494 179.163362,69.5721715 179.225095,69.5721715 L179.592716,69.6328758 L179.961031,69.69358 C180.452117,69.7536022 180.94251,69.8143064 181.371864,69.9350328 C183.273784,70.2371899 185.052932,70.5393469 186.771041,71.0236167 C188.611922,71.5672265 190.329337,72.292267 191.862942,73.1994202 L192.415068,73.5622815 L192.967887,73.9851649 L193.520012,74.4087304 C193.703823,74.5294568 193.826594,74.7108875 194.010405,74.8316139 L194.501492,75.2551794 C194.685302,75.3759058 194.808074,75.5573365 194.991884,75.7394492 L195.974057,76.7666467 C197.323852,78.2174098 198.918496,79.3660158 200.636605,80.3338732 C202.35402,81.3010486 204.194901,82.0867933 206.035782,82.6911074 C207.140033,83.0539687 208.305323,83.3561257 209.471306,83.6589648 C210.698329,83.9004176 211.925351,84.1425525 213.275146,84.1425525 L213.458956,84.1425525 C213.520689,84.1425525 213.520689,84.1425525 213.581728,84.2025747 C213.642767,84.2632789 213.7045,84.3239832 213.642767,84.3840053 C213.642767,84.4447096 213.642767,84.4447096 213.581728,84.5047317 L213.581728,84.566118 L213.520689,84.6861624 L213.458956,84.9282972 C213.336185,85.2911585 213.213413,85.6540198 213.152374,85.9561768 C211.924658,89.8248783 210.882139,93.8149883 209.716849,97.7450761 C208.611905,101.372325 207.507654,105.060278 206.403403,108.748231 L206.342364,108.748231 L205.667467,108.687526 C205.17638,108.687526 204.685987,108.626822 204.194901,108.5668 C203.213422,108.506096 202.231942,108.324665 201.18873,108.143916 C199.22384,107.779927 197.308934,107.191402 195.482971,106.390314 C193.680895,105.558523 192.007866,104.479663 190.513841,103.185949 L189.408897,102.158069 C189.041276,101.855912 188.734,101.433029 188.427417,101.070168 L187.937025,100.525876 L187.323166,99.9215617 C187.139356,99.6794268 186.893119,99.5587004 186.648269,99.3772698 C186.402726,99.1958391 186.218915,99.0144085 185.973372,98.893 C184.133185,97.7450761 180.94251,96.4750616 175.298483,96.0521781 C174.439082,95.9914739 173.519335,95.9914739 172.598895,95.9914739 C172.168847,95.9914739 171.678455,96.0521781 171.249101,96.0521781 L170.574204,96.1128824 C170.390393,96.1128824 170.451432,96.1729045 170.451432,96.1729045 C170.451432,96.1729045 170.32866,96.2336088 170.32866,96.1128824 L169.101638,95.7500211 C168.978866,95.9914739 168.978866,96.294313 169.040599,96.5357658 L169.040599,96.5357658 Z" id="Shape" fill="#D3D6DD" fill-rule="nonzero"></path>
            <path d="M183.123169,74.0076621 C182.332334,74.2548148 181.846143,76.2969662 181.603391,76.8534088 C181.055308,78.3391175 180.690149,79.6384145 180.082238,81.123425 C179.473639,82.6091338 178.987448,84.1555834 178.500569,85.640594 C178.257129,86.3834483 178.014378,87.3741535 177.831454,88.1163097 C177.709734,88.6120114 177.284059,90.2820374 177.04062,90.9013154 C176.797868,91.6434716 177.709734,92.2627497 178.014378,91.1484681 C178.196613,90.5298883 178.926244,88.2398861 179.047964,87.9927334 C179.717079,86.1984329 179.960518,84.7127242 180.751353,82.9798628 C181.542187,81.2476995 181.906659,79.3284264 182.575774,77.5341259 C182.758697,77.4105495 183.853487,73.8212504 183.123169,74.006964 L183.123169,74.0076621 Z M188.172131,75.6776881 C187.381297,75.925539 186.894418,77.9676903 186.651666,78.5248311 C186.104271,80.0098416 185.739112,81.3091386 185.130513,82.7941492 C184.522602,84.2798579 184.035723,85.8270057 183.548844,87.3113181 C183.306092,88.0548706 183.062653,89.0448777 182.880417,89.7870339 C182.758697,90.2827356 182.333022,91.9534597 182.089582,92.5720396 C181.846143,93.314894 182.758697,93.9334738 183.062653,92.8198904 C183.244888,92.2006124 183.975207,89.9113084 184.096927,89.6641557 C184.766041,87.8691571 185.008793,86.3834483 185.799628,84.6512851 C186.590462,82.9184237 186.954934,80.9998487 187.624736,79.2055482 C187.746456,79.0812737 188.901762,75.4305354 188.172131,75.6776881 L188.172131,75.6776881 Z M193.220406,77.3484123 C192.429572,77.5962631 191.94338,79.6384145 191.699941,80.1955552 C191.152546,81.6805658 190.787387,82.9798628 190.179476,84.4655715 C189.570877,85.9505821 189.084686,87.4977299 188.597807,88.9827404 C188.354367,89.7255948 188.110928,90.7156018 187.928692,91.4584562 C187.806972,91.9534597 187.381297,93.6241839 187.137857,94.2427637 C186.894418,94.9856181 187.806972,95.604198 188.110928,94.4906146 C188.293851,93.8713366 189.023482,91.5820325 189.145202,91.3348799 C189.814316,89.5398812 190.057756,88.0548706 190.84859,86.3220092 C191.639425,84.5891478 192.003896,82.6705728 192.673011,80.8762723 C192.794731,80.7519978 193.890209,77.1012596 193.220406,77.3484123 L193.220406,77.3484123 Z M197.478534,81.5569895 C196.6877,81.8041421 196.200821,83.8469916 195.958069,84.4034342 C195.409986,85.8884448 195.045515,87.1884399 194.436916,88.6734505 C193.829005,90.1584611 193.342126,91.7056089 192.855247,93.1906194 C192.612495,93.9334738 192.369056,94.9234809 192.18682,95.6663352 C192.0651,96.1613387 191.639425,97.8320629 191.395985,98.4506428 C191.152546,99.1934971 192.0651,99.812077 192.369056,98.6984936 C192.551292,98.0799137 193.28161,95.7899116 193.40333,95.5427589 C194.072445,93.7484584 194.315196,92.2627497 195.106031,90.5298883 C195.896865,88.7970268 196.261337,86.8784518 196.931139,85.0841514 C197.052859,84.960575 198.147649,81.3091386 197.478534,81.5569895 L197.478534,81.5569895 Z M201.979414,84.7127242 C201.18858,84.960575 200.702389,87.0027264 200.458949,87.559169 C199.911554,89.0448777 199.546395,90.3448728 198.938484,91.8291852 C198.329885,93.314894 197.843006,94.8620418 197.356815,96.3463542 C197.113375,97.0892085 196.869936,98.0799137 196.6877,98.8220699 C196.56598,99.3177716 196.140305,100.988496 195.896865,101.607076 C195.653426,102.34993 196.56598,102.96851 196.869936,101.854228 C197.052859,101.235648 197.78249,98.9463444 197.90421,98.6984936 C198.573324,96.9041931 198.816764,95.4184844 199.607599,93.685623 C200.398433,91.9534597 200.762905,90.0341866 201.432019,88.2398861 C201.614255,88.178447 202.709733,84.5270106 201.979414,84.7127242 L201.979414,84.7127242 Z M206.784938,87.249879 C205.994103,87.4977299 205.507224,89.5398812 205.263785,90.097022 C204.71639,91.5820325 204.351918,92.8813295 203.744007,94.3663401 C203.135408,95.8520488 202.648529,97.3991966 202.162338,98.883509 C201.918898,99.6270616 201.675459,100.617069 201.493223,101.359225 C201.371503,101.854926 200.94514,103.525651 200.702389,104.14423 C200.458949,104.887085 201.371503,105.505665 201.675459,104.392081 C201.857695,103.772803 202.588013,101.483499 202.709733,101.236347 C203.378848,99.441348 203.621599,97.9556392 204.412434,96.223476 C205.203269,94.4906146 205.56774,92.5720396 206.237543,90.7777391 C206.359262,90.6534646 207.454052,87.0641654 206.784938,87.249879 L206.784938,87.249879 Z" id="Shape" fill="#D3D6DD" fill-rule="nonzero"></path>
            <path d="M20.6286051,95.6746153 L20.9947477,95.6746153 C21.1177164,95.6746153 21.2399942,95.7974323 21.1785099,95.9195594 L7.00257215,131.880115 C6.88029433,132.247186 11.1572549,132.063651 11.4018105,131.757988 L35.7827654,95.7360238 C35.8435589,95.6746153 35.9050433,95.6746153 35.9050433,95.6746153 L45.3763935,95.6746153 C45.437187,95.6746153 45.4986713,95.7367138 45.5594648,95.7974323 L49.959394,106.010567 C52.1105572,111.048727 55.4176943,115.511108 59.6138156,119.037454 L70.3072532,129.861914 L75.8677855,132.91992 C76.1731346,133.164864 76.5399681,132.797793 76.356206,132.492131 L66.9463401,115.183897 C65.4189035,112.432243 64.3184031,109.496363 63.585427,106.438357 L61.0804586,95.9809679 C61.0804586,95.8581509 61.1412521,95.7360238 61.26353,95.7360238 L79.7171191,95.7360238 C80.4500952,95.7360238 81,95.1246985 81,94.4519647 C80.9392065,91.8831564 80.6338574,85.7064248 79.5948413,78.122817 C71.4070628,78.8562694 57.5364742,79.8353559 42.6261787,79.8353559 C26.6167644,79.8353559 14.6404458,78.7341424 8.59080221,78 L12.623898,88.8258399 L20.6286051,95.6746153 L20.6286051,95.6746153 Z" id="Shape" fill="#B3D8F6" fill-rule="nonzero"></path>
            <path d="M61.3411851,36.9903839 C60.3029189,36.200852 59.7523545,34.8644046 59.7523545,33.5889541 C59.9361062,26.5421073 58.7140883,15 48.7548842,15 C38.5504476,15 36.0456217,27.0890227 35.4957482,34.0748727 C35.3789864,35.3580317 34.6824667,36.5195879 33.6015859,37.2336859 C21.0753843,45.7992851 12.7658007,64.2662456 8,78.1769488 C14.0486087,78.9068546 26.0249368,80 42.0334404,80 C56.9421969,79.9390032 70.8119965,78.9671661 79,78.2989424 C77.0450477,64.2662456 72.400827,45.4956717 61.3411851,36.9903839 Z" id="Shape" fill="#FFFFFF" fill-rule="nonzero"></path>
            <path d="M0.0327620826,1.15035806 C-0.15222025,1.8156229 0.463228489,3.14615258 1.44725105,4.29586668 C2.2469867,5.26271825 3.23100926,6.10948098 4.15383465,6.83547256 C4.58430106,7.19846835 5.07666005,7.5007374 5.44523387,7.80300644 L5.99879003,8.16600223 C6.06068261,8.22604665 6.12187977,8.22604665 6.12187977,8.28677339 C6.18377236,8.34750013 6.18377236,8.46827128 6.18377236,8.58904244 C6.18377236,8.64976918 6.12187977,8.71049592 6.12187977,8.71049592 L5.93759286,9.07280938 C3.72336825,12.9436273 2.61625594,16.9352163 2.80054285,21.5320257 C2.86174001,24.131676 3.53838592,26.7927354 4.58430106,29.2122524 C5.63021621,31.6317695 7.04470517,33.8691063 8.58297931,35.9256275 C10.1198626,37.9214221 12.5190695,40.3402568 14.3647203,41.9130111 C14.8563839,42.3360513 15.7792093,43.1227696 16.8251245,43.9695323 C17.8703442,44.8156128 19.1005462,45.6623755 20.0852642,46.3276403 C20.8224119,46.8120896 21.3154663,47.1744031 21.6847355,47.4166277 C22.6680626,48.0818925 23.590888,48.1419369 23.8982647,47.7796235 C24.2063368,47.4766721 23.8370675,46.8114073 22.4837757,45.8438734 C22.2375962,45.6623755 21.8690224,45.4208332 21.1923765,44.9363839 C20.1464614,44.1503479 18.5469901,42.9412717 17.1936983,41.7922399 C15.9022991,40.6432082 14.7944913,39.6149475 14.6102044,39.3727229 C12.5190695,37.2561572 10.7965085,35.2603627 9.32082237,33.1431147 C7.84444082,31.026549 6.5530416,28.7284855 5.87570028,25.946655 C5.13785721,23.2248689 4.89167772,20.3222672 5.26094696,17.5404367 C5.26094696,17.1774409 5.32214413,16.8144451 5.44523387,16.5121761 L5.63021621,15.4839155 C5.81450312,14.8186506 6.06068261,14.092659 6.24496952,13.4273942 C6.55234618,12.7621294 6.79852568,12.0968645 7.10590233,11.4315997 L7.59826133,10.4640658 L7.84444082,9.97961653 L7.96753057,9.73807422 L8.09062032,9.55657633 C8.15181748,9.49653191 8.15181748,9.37576075 8.21371006,9.31503402 C8.27490723,9.19426286 8.58228389,8.58904244 8.27490723,7.74227971 C8.15181748,7.3192395 7.78254824,6.83479023 7.29088467,6.53320351 C7.03451529,6.33767939 6.76754614,6.15591556 6.49114902,5.98870982 C5.20536387,5.11280067 3.97304581,4.16365181 2.80054285,3.14615258 C1.07728638,1.87634964 0.217048993,0.545819962 0.0327620826,1.15035806 Z" id="Shape" fill="#505A78" fill-rule="nonzero"></path>
            <path d="M41.3551175,18.8346722 C42.0864192,19.6371473 43.0624071,20.0077347 44.4037012,19.6984475 C45.6229967,19.4518536 46.65895,18.5873817 47.6342486,17.9082036 C48.4268941,17.2910222 49.5241912,17.3523224 50.3168368,18.0315005 L51.0488277,18.7106787 C51.4141339,19.0199659 51.5974762,19.4518536 51.6581308,19.945738 C51.9627824,21.9832724 52.1461248,23.5889192 53.8527251,25.1325692 C55.5600146,26.6755226 57.6326103,27.04611 59.8885484,26.7375193 C59.949203,26.7375193 60.0105469,26.6755226 60.0712015,26.6755226 C60.0712015,26.9228131 60.1325454,27.2314037 60.1325454,27.4786942 C60.1932,28.6517568 61.4124956,29.3309349 62.4484488,28.8370505 C65.0703824,27.5399944 67.874969,25.50246 67.9969675,22.2305629 C68.0576221,20.3776256 67.204322,18.6493785 65.8023733,17.6609131 C67.5703174,13.3392503 64.7657308,8.64700016 60.1932,8.39970965 C60.437197,5.12711593 58.7299074,1.85521879 55.6206692,0.558162697 C52.4514656,-0.800193576 48.8535442,0.434865743 46.7202939,3.02828134 C41.9644207,-0.614899848 34.8319895,2.71969065 35.0146426,8.77029711 C31.9060936,8.89359406 29.3448147,12.1661878 29.0401631,15.4387815 C28.5521692,20.6869129 32.5760514,24.6379882 37.5752323,24.8232819 C38.4285324,24.8232819 38.9165263,24.2680973 39.0385248,23.5889192" id="Shape" fill="#409EEB" fill-rule="nonzero"></path>
            <path d="M62.4706563,99.9180085 C62.1632338,100.526073 62.2249959,101.864365 62.4706563,103.385214 C62.8384529,104.844982 63.1458753,106.305436 63.5136719,107.887366 C63.9439245,109.407528 64.4345513,110.927691 65.0487022,112.388145 C65.6621592,113.847913 66.3991403,115.308367 67.1354274,116.646659 L69.3449828,120.661535 C70.6986058,123.164756 72.0694316,125.658841 73.4573651,128.143617 C74.071516,129.299352 74.6856669,130.394693 75.2373618,131.428266 C75.2991239,131.550428 75.360192,131.610823 75.360192,131.732985 L75.4219541,131.854461 C75.4830222,131.914855 75.4219541,131.975936 75.360192,131.975936 C75.1762937,132.037017 74.9923954,132.097412 74.8078031,132.037017 L74.6239049,132.037017 C74.5010747,132.037017 74.4400066,131.975936 74.3171764,131.975936 C74.1325841,131.914855 73.9486858,131.854461 73.7647875,131.732985 C73.5801953,131.671218 73.4573651,131.550428 73.3345349,131.428266 C73.2123987,131.30679 73.0895685,131.185315 72.9049762,131.063839 C72.2915193,130.455088 71.8001985,129.907417 71.3088778,129.481909 C69.0382543,127.230833 66.8286989,124.979757 64.7412798,122.85153 C63.6982641,121.756189 62.6545546,120.72193 61.6115389,119.68767 C61.3658786,119.444719 61.1202182,119.201081 60.8745578,118.897049 L60.5067613,118.531935 L60.4443052,118.47154 L60.3832371,118.410459 L60.2604069,118.350065 L60.0765086,118.167508 C59.541688,117.748277 59.0483793,117.279712 58.6032404,116.768135 C55.1660771,113.422405 52.6490993,109.529004 50.8691026,105.453733 C49.9489171,103.385214 49.0280377,101.316695 48.1689204,99.2488624 C47.6775997,98.1535219 47.248041,97.1192623 46.7567203,96.0246081 C46.572822,95.5373325 46.3271616,95.1735916 45.897603,95.1118243 C45.7137047,95.0514295 45.4062822,95.0514295 45.1613158,95.0514295 L36.0767399,95.0514295 C35.8928417,95.0514295 35.7089434,95.1118243 35.5854192,95.2339863 C35.4479426,95.3625531 35.324653,95.5051882 35.2176226,95.6594945 L34.7263019,96.3897216 L33.2530336,98.6407974 C31.2891386,101.621414 29.3252436,104.602031 27.2988926,107.643728 C23.2482723,113.666042 19.1969582,119.809832 14.8999836,126.19726 C14.2865267,127.110044 13.7341378,127.96106 13.1199869,128.873844 L12.6904282,129.54299 C12.567598,129.725547 12.4447679,129.907417 12.2608696,130.089974 C11.9541411,130.394693 11.6467186,130.698725 11.2789221,130.881282 C10.541941,131.30679 9.68282363,131.550428 8.8237063,131.428266 C8.70087612,131.428266 8.70087612,131.428266 8.63911405,131.367871 L8.70087612,131.30679 L8.8237063,130.941677 C10.4198047,126.926801 12.0769713,122.911925 13.6723757,118.897049 C15.2684742,114.882172 16.9256407,110.867296 18.5217391,106.85242 L20.9158868,100.830106 L22.1434946,97.8494894 L22.5730533,96.6937541 C22.6341214,96.4501163 22.6341214,96.2064785 22.6341214,96.0246081 C22.6341214,95.9031323 22.5730533,95.7809703 22.5112912,95.6594945 C22.4502231,95.5380188 22.4502231,95.5380188 22.3273929,95.4165431 C22.1434946,95.2339863 21.9595963,95.0514295 21.713242,94.9292675 L21.2836834,94.5648403 L20.6702264,94.0775647 C19.2027155,92.9815769 17.7499078,91.866465 16.3121837,90.7325209 C15.9436932,90.4278021 15.6369647,90.1848506 15.2684742,89.9412129 C14.9617457,89.6982614 14.6550172,89.3942289 14.3475948,89.0901964 C14.0408663,88.7854776 13.7952059,88.4814451 13.4884774,88.1774126 C13.2428171,87.8733801 12.9971567,87.5082666 12.7521903,87.2042341 C11.8313109,85.865942 11.0943298,84.3450932 10.6647711,82.7020824 C10.2352125,81.1208388 10.1123823,79.4785143 10.2352125,77.8361898 C10.2969745,77.0448817 10.4808728,76.1938652 10.6654651,75.4025571 C10.9104315,74.5515407 11.1560919,73.7602326 11.4010583,72.9085298 C11.6467186,72.0575133 11.9541411,71.2662053 12.1991075,70.4145025 C12.5065299,69.6238807 12.8132584,68.772178 13.1199869,67.9815562 C14.3482887,64.7573018 15.820863,61.6545232 17.4780296,58.6135119 C19.2580263,55.3892575 21.4682756,51.9824464 24.0463216,48.6367163 C26.6854356,45.3520672 29.7541083,42.1888939 33.2530336,39.5727045 L34.5424036,38.599526 L35.2176226,38.1129367 C35.5243511,37.93038 35.7700115,37.6874285 36.0156718,37.383396 C36.5062986,36.8357257 36.8747892,36.2269744 37.0586875,35.5578284 C37.1815176,35.2537959 37.2425858,34.8886824 37.3043478,34.5242551 L37.3654159,34.0369796 L37.427178,33.6114713 C37.6150688,31.499858 37.9637295,29.4052667 38.4701936,27.3455194 C38.9615144,25.3387676 39.6367334,23.4528053 40.6186809,21.7493997 C41.5395603,20.1070752 42.7061001,18.6473074 44.1176062,17.6734426 C44.5478589,17.3090153 45.1613158,17.0042965 45.7747728,16.700264 C46.4499918,16.4573126 47.186279,16.2136748 48.0460902,16.031118 C49.7643249,15.7881665 51.9128122,15.8485613 53.8156391,16.8217398 C54.7975866,17.3090153 55.6573979,18.0385561 56.393685,18.9513399 C57.1299721,19.8641237 57.7441231,20.9587779 58.2354438,22.1145132 C59.1556292,24.4870648 59.64695,27.2240436 59.8315422,29.9617087 C59.8926103,30.6308547 59.8926103,31.3610818 59.8926103,32.0302278 L59.8926103,33.6114713 C59.8926103,33.7940281 59.8926103,34.0369796 59.9536784,34.2195363 C60.0755974,35.0689981 60.3904293,35.8801303 60.8745578,36.5920879 C61.1120745,36.9379862 61.4018133,37.2458241 61.7336752,37.5048717 L62.5317244,38.1740177 C64.6184496,39.8774233 66.3991403,41.9452561 67.8717146,44.0137752 L68.4241034,44.7440022 C68.5469336,44.865478 68.6086957,45.0480347 68.7315258,45.1695105 C68.9154241,45.4131482 69.0382543,45.656786 69.1610845,45.8997375 C69.7745415,46.872916 70.5115226,47.3595053 70.9410812,47.1769485 C71.3706399,47.0554728 71.431708,46.2641647 70.5108286,44.7440022 C70.3886924,44.5614455 70.2041001,44.2567266 70.0202018,43.9526941 C69.8973716,43.7701374 69.7745415,43.6486616 69.6524052,43.4661049 L69.2839147,42.9184346 C69.0382543,42.6144021 68.8536621,42.3103696 68.6086957,42.0056508 C68.1173749,41.3982721 67.6267481,40.7291261 67.0736653,40.1203748 C65.9753924,38.8401018 64.7635448,37.6595325 63.4526038,36.5927742 C62.1021657,35.6189094 61.610845,34.5846499 61.7336752,32.8812443 C61.7336752,29.3536437 61.4880148,25.6428001 60.2604069,22.1145132 C59.64695,20.3507129 58.7878326,18.6473074 57.4984627,17.2479343 C56.2097867,15.8485613 54.5526202,14.8143017 52.8336916,14.3887935 C51.995838,14.1484475 51.1280312,14.0255451 50.2556456,14.02368 C49.3965283,13.9632852 48.5984791,14.02368 47.7393618,14.1451557 C46.1432633,14.3887935 44.608927,14.9968585 43.3813191,15.7881665 C40.9254094,17.4304911 39.5139032,19.5594049 38.6547859,21.2017294 C37.7949746,22.844054 37.3654159,24.1219513 37.1815176,24.7300163 C36.5673667,26.5555839 36.1378081,28.4408599 35.8310796,30.3268222 C35.6471813,31.239606 35.5854192,32.2120983 35.463283,33.1248821 L35.400827,33.7940281 L35.3397589,34.0980606 C35.3397589,34.1591416 35.3397589,34.2806174 35.2786907,34.3416984 C35.2211756,34.6866391 35.0962489,35.0171913 34.9108941,35.3148769 C34.7263019,35.6189094 34.4806415,35.8625472 34.2349812,36.1054987 C33.9900147,36.2880554 33.5597621,36.5927742 33.1919655,36.8357257 C32.4549844,37.383396 31.7186973,37.8699852 30.9817162,38.4780502 C30.3071911,39.0861152 29.57021,39.6337855 28.894991,40.2418505 C28.219772,40.8506018 27.606315,41.4586668 26.931096,42.0674181 C24.4141181,44.5614455 22.1428007,47.2984243 20.1178376,50.0971704 C18.0914865,52.8952302 16.3121837,55.8758468 14.7160853,58.8564634 C13.1199869,61.898161 11.7695488,65.0002533 10.603703,68.164113 C9.98955211,69.7453565 9.49892533,71.387681 9.0076046,73.0300056 C8.76194423,73.8213136 8.51697782,74.6730164 8.33238557,75.5247192 C8.20955539,75.9502274 8.20955539,76.437503 8.14848727,76.8630112 C8.0867252,77.2885195 8.0867252,77.775795 8.02565709,78.2013033 C7.90282691,81.7906712 9.0076046,85.4397475 11.1553979,88.4203641 C11.7084807,89.1505911 12.3219377,89.8808181 12.9360886,90.4888831 C13.2428171,90.7929156 13.6113076,91.1580292 13.9797982,91.4016669 L14.532187,91.8271752 L15.0845759,92.2526834 C16.496082,93.348024 17.9075882,94.3822835 19.3197883,95.4769378 C19.6265168,95.7205756 19.8721772,95.902446 20.1789057,96.1460838 C20.2406677,96.1460838 20.2406677,96.2071648 20.3017359,96.2071648 C20.362804,96.2071648 20.3017359,96.2682458 20.3017359,96.3286406 C20.0560755,96.9373919 19.8104151,97.6065379 19.5036866,98.2756839 C18.8902297,99.7958464 18.2150107,101.438857 17.6008597,103.020101 C16.2504217,106.305436 14.8999836,109.711561 13.4274093,113.239848 C11.0943298,119.018524 8.70087612,124.858968 6.36849055,130.698725 C6.24566037,131.063839 6.06106811,131.428266 6,131.732985 C6,131.854461 6,132.037017 6.06106811,132.158493 L6.12283018,132.34105 C6.1838983,132.402131 6.1838983,132.462526 6.24566037,132.523607 C6.30672848,132.645082 6.42955866,132.766558 6.55238885,132.827639 C6.67521903,132.949115 6.85911733,132.949115 6.98264147,133.071277 C7.28867599,133.253147 7.65716654,133.314228 8.02565709,133.37531 C8.20955539,133.435704 8.39345368,133.435704 8.57804594,133.435704 L9.68282363,133.435704 C10.1741444,133.37531 10.6647711,133.314228 11.0943298,133.131672 C12.0152092,132.827639 12.8750205,132.34105 13.5495456,131.671904 C13.9180361,131.367871 14.2247646,131.002758 14.470425,130.576563 L15.145644,129.603385 C16.8645726,126.987882 18.5828072,124.432773 20.3017359,121.81727 C23.7388991,116.646659 27.1767563,111.414967 30.6139196,106.183274 C32.3321543,103.567771 34.0510829,100.952268 35.7700115,98.3971597 L36.751959,96.9373919 L45.0377917,96.9373919 L45.1002477,96.9977866 L45.5908745,98.0931272 C46.2043314,99.5528949 46.8795505,101.012663 47.4937014,102.47243 C48.1071583,103.932885 48.7823774,105.392652 49.3965283,106.912815 C50.0717473,108.43435 50.8691026,109.894118 51.7282199,111.293491 C53.5089106,114.091551 55.5956358,116.646659 58.0508515,118.897735 C58.35758,119.201081 58.6650025,119.444719 58.9717309,119.688357 L59.0945611,119.809832 C59.0945611,119.809832 59.1556292,119.870227 59.0945611,119.809832 L59.2784594,119.992389 L59.708712,120.417897 L61.3658786,122.121303 C62.4706563,123.277038 63.575434,124.372379 64.7412798,125.528114 C64.9869401,125.771066 65.9695816,126.744244 67.503224,128.265093 C68.2402051,129.056401 69.1610845,129.907417 70.2041001,130.941677 L71.8619606,132.584001 C72.2297572,132.949115 72.7210779,133.253147 73.2123987,133.496785 C73.4573651,133.618261 73.7030255,133.740423 74.0104479,133.800818 C74.1325841,133.861899 74.2554143,133.861899 74.4400066,133.922293 C74.5010747,133.922293 74.5621428,133.922293 74.684973,133.984061 L74.9923954,133.984061 C75.6058524,134.044456 76.1582412,133.922293 76.6495619,133.800818 C77.1401887,133.618261 77.6315095,133.37531 77.8154077,133.010196 C77.8154077,132.949115 77.8771698,132.88872 77.8771698,132.827639 C77.8771698,132.766558 77.8771698,132.766558 77.9382379,132.706163 C77.9382379,132.645082 78,132.523607 78,132.402131 L78,132.037017 L77.9382379,131.854461 C77.8771698,131.79338 77.8771698,131.732985 77.8154077,131.671904 C77.5704413,131.184628 77.2630189,130.698725 77.0173585,130.212136 C76.4039016,129.056401 75.7286825,127.899979 75.0534635,126.683849 C73.7030255,124.250217 72.2915193,121.695795 70.8793192,119.140686 C70.143032,117.862789 69.4067449,116.524497 68.6697638,115.186205 C67.9334766,113.90968 67.2582576,112.631783 66.7058687,111.233096 C66.1534799,109.894804 65.6621592,108.494745 65.2326005,107.156453 C64.8648039,105.818161 64.4963134,104.358393 64.1278228,102.959706 C63.3908417,100.891187 62.7156227,99.3092572 62.4706563,99.9180085 L62.4706563,99.9180085 Z" id="Shape" fill="#505A78" fill-rule="nonzero"></path>
            <path d="M53.8956623,79.7300711 C53.3415295,79.2995228 51.9868279,79.1141092 50.5089082,78.9911946 C49.0929457,78.86828 47.3685901,78.9293901 46.7525002,78.9293901 C45.2140159,78.86828 43.8586181,78.9293901 42.4426555,78.9293901 C41.026693,78.9293901 39.6719914,78.86828 38.1940717,78.7453654 C35.1769716,78.4988417 32.0979144,78.3148171 29.1427713,78.2523181 C27.7261126,78.191208 25.6940602,78.191208 24.2780977,78.191208 C23.5394859,78.191208 21.3842155,78.191208 20.0295139,78.1294035 C19.1676842,78.0682934 18.6128552,78.0682934 18.1206794,78.0064889 C15.7809301,77.8835743 14.7958824,79.545352 18.2438974,79.7300711 C18.5515943,79.7300711 19.0444662,79.7911812 19.845035,79.8529857 C21.4461726,79.9759003 24.7090125,80.1606194 25.0786664,80.1606194 C28.7111603,80.5300577 31.5437816,80.283534 35.1150145,80.7147768 C38.6862475,81.1453251 42.4426555,80.960606 46.0138885,80.960606 C46.1371065,80.960606 48.6000738,80.8994959 50.5089082,80.6529723 C52.7254396,80.4682531 54.449099,80.1606194 53.8956623,79.7293767 L53.8956623,79.7300711 Z" id="Shape" fill="#505A78" fill-rule="nonzero"></path>
            <path d="M53,54.6578913 L117.05996,43.0185153 C117.791093,42.8974713 118.522915,43.3823313 118.644886,44.1099633 L124.861931,80.5394319 C125.775675,85.9344399 122.057301,91.0258121 116.572078,91.693264 L69.5790169,97.9362641 C67.323598,98.2392162 65.0075385,97.4507203 63.4226123,95.8149161 L61.7164049,94.057384 C61.7770455,94.057384 53,81.7519239 53,54.6572074 L53,54.6578913 Z" id="Shape" fill="#FFFFFF" fill-rule="nonzero"></path>
            <path d="M77.4994573,98.1261236 C78.1108024,98.4942436 79.4550709,98.5559436 80.9216084,98.4332369 C86.3594714,97.818317 92.7754866,96.8969771 95.2802746,96.5281639 C101.023465,95.7905373 106.33975,94.9919041 111.655344,94.2542776 C112.999612,94.0705642 114.282401,93.8861575 115.626669,93.7017509 L116.604131,93.5790442 C116.970247,93.516651 117.337745,93.4556443 117.703861,93.3946376 C118.059988,93.3289515 118.408226,93.2257794 118.742802,93.0868311 C119.108919,92.9641244 119.414936,92.7797178 119.781744,92.6570111 C122.46959,91.3668579 124.669741,88.908565 125.585723,85.7750387 C126.01401,84.238779 126.135588,82.5791193 125.830261,80.9818528 C125.585723,79.507293 125.402665,78.0937399 125.158127,76.6191801 C124.669741,73.7310672 124.241454,70.7819476 123.753069,67.8938347 C122.775608,62.0566022 121.798146,56.2796832 120.881474,50.687864 C120.636936,49.3360109 120.392398,47.7997511 120.087071,46.2641846 C120.025591,45.8953713 119.964802,45.4648581 119.903322,45.0960448 L119.781744,44.4818182 L119.720264,44.1747049 L119.659475,43.9285983 C119.659475,43.8675916 119.597995,43.7441917 119.597995,43.683185 C119.353457,42.9455585 118.742802,42.3923386 118.070668,42.1469252 C117.704552,42.0242185 117.337745,41.9625186 116.970938,42.0242185 L116.66561,42.0242185 L116.359592,42.0852253 C113.12119,42.6384452 109.883479,43.2526718 107.194942,43.7441917 C104.078809,44.2974116 93.3861409,46.2024846 89.2310665,46.9401111 C86.9708165,47.3082312 86.3594714,49.1516042 89.7809317,48.5990776 C93.9967953,47.923151 109.577461,45.3421514 111.166267,45.0960448 C112.877343,44.8506315 114.587728,44.5435182 116.176534,44.2974116 L116.787879,44.1747049 L117.093207,44.113005 L117.276265,44.113005 C117.398534,44.113005 117.520803,44.1747049 117.581592,44.2364049 C117.616564,44.2682209 117.638481,44.3119642 117.643072,44.3591116 L117.643072,44.5435182 L117.703861,44.8506315 C117.765341,45.2194447 117.82613,45.6492647 117.88761,46.018078 C118.437475,49.1516042 118.98734,52.2241238 119.476416,55.2349433 C120.514667,61.3182824 121.553608,67.4016215 122.591859,74.2842871 C122.836397,76.0049535 123.080935,77.7249267 123.386262,79.4455931 L123.570011,80.7364395 L123.691589,81.412366 L123.753069,81.9648927 C123.813858,82.7025192 123.813858,83.5011525 123.691589,84.238779 C123.203204,87.2495986 121.003743,89.9533048 118.131457,90.9363447 C117.765341,91.0590514 117.398534,91.1824513 117.031727,91.243458 L116.481861,91.3668579 L115.748938,91.6122713 L113.18267,91.9810845 C111.471595,92.2271911 109.76121,92.4732977 107.989345,92.718711 C104.567194,93.210231 101.145734,93.7017509 97.7242735,94.1315709 C97.1744083,94.1932708 87.8874888,95.545124 80.7378595,96.7742704 C78.5998785,97.3267971 76.9502829,97.818317 77.5001481,98.1261236 L77.4994573,98.1261236 Z M79.638129,49.5821175 C79.0274747,49.2133042 77.6832062,49.2133042 76.2166687,49.3360109 C74.7501312,49.5204175 73.1620155,49.7658308 71.6339981,50.0119374 L70.5342677,50.1963441 L70.1681514,50.258044 C70.0458823,50.258044 69.8621334,50.319744 69.7398644,50.319744 C69.4345372,50.3807507 69.2514791,50.5034574 69.0076318,50.749564 C68.0902688,51.6092039 69.0076318,53.084457 69.0684209,53.4532702 C69.6182862,54.98953 69.9844024,56.2796832 70.2289405,57.0790096 C71.695478,61.994209 72.9174774,66.5419816 73.9564187,71.1500676 C74.4448041,73.4239539 74.8724002,75.7588469 75.1784182,78.1554399 C75.4837454,80.5520328 75.7282834,82.9479326 75.6668035,85.4679254 C75.6060144,87.9255251 75.4222655,90.5065247 74.6893421,92.7797178 C74.3232258,93.8861575 73.7726698,94.9919041 73.1005356,95.7905373 C72.3676122,96.6508705 71.5117291,97.2047837 70.4734785,97.5722104 C69.4345372,97.880017 68.2740177,98.0027237 67.2958655,97.7573103 C66.2342995,97.5050716 65.2491601,96.999204 64.4242704,96.2827505 C62.7138856,94.8074975 61.4304063,92.6570111 60.3921558,90.5065247 C59.3532145,88.3553451 58.437233,85.6516388 57.6428297,82.8869258 C56.8484264,80.1215196 56.2370813,77.2951067 55.8094851,74.8985137 C55.2658255,72.0057065 54.8174917,69.0956726 54.4652167,66.1731683 C54.2206786,64.329102 54.0369297,62.4864222 53.9153514,60.7657558 C53.8538715,60.3359358 53.8538715,59.9664293 53.7930824,59.5983093 C53.7930824,59.2905027 53.7316025,58.9833894 53.7316025,58.7379761 C53.6708134,57.5705296 53.1817373,56.8329031 52.7541411,56.7712031 C52.3265449,56.7101964 51.8989487,57.3861229 52.0212177,59.1067893 C52.0212177,59.3522027 52.0820069,59.659316 52.0820069,60.0288225 C52.1434868,60.6423559 52.1434868,61.3182824 52.2042759,62.055909 C52.387334,64.1453886 52.5703922,66.5412883 52.8764101,68.8151746 C53.4262753,73.4239539 54.2206786,77.7249267 54.4037367,78.4625532 C55.0150819,81.5350727 55.6872161,84.4231856 56.6646775,87.1268919 C57.5813498,89.8305981 58.7418693,92.4109045 60.3306759,94.8081907 C61.1250791,95.974944 62.0417514,97.1423905 63.2637509,98.0644236 C64.4242704,98.9864568 65.8908079,99.7233901 67.4796144,99.9084899 C68.2740177,100.030503 69.0684209,100.030503 69.8628242,99.9084899 C70.6572275,99.78509 71.4516307,99.6006834 72.1838633,99.2318701 C73.7118807,98.5559436 74.9953601,97.2657904 75.8505524,95.7905373 C76.7057448,94.3159775 77.1941301,92.718711 77.5001481,91.1207513 C77.8054752,89.5234848 77.9277443,87.9255251 77.9885334,86.3275654 C78.0500133,83.1323392 77.7446861,79.9981197 77.25561,76.9269867 C76.2781486,70.7202476 74.6893421,64.6979153 72.9782666,58.7989828 C72.9174774,58.5535694 72.1230742,56.0342698 71.0233437,52.8390436 C70.9618638,52.654637 70.9010747,52.5312371 70.8402856,52.3468304 L70.7788057,52.2241238 L70.7788057,52.163117 C70.7788057,52.163117 70.7180166,52.163117 71.0233437,52.1014171 L72.1230742,51.9170105 C73.6504008,51.6098972 75.1784182,51.3637906 76.5834758,51.0573705 C78.5998785,50.4424507 80.2494741,49.8892308 79.638129,49.5821175 L79.638129,49.5821175 Z" id="Shape" fill="#505A78" fill-rule="nonzero"></path>
            <path d="M65.775503,92.9664846 C66.3821212,92.6656307 66.1391994,92.0618808 66.1391994,91.8808239 C66.1391994,91.3982324 65.9573512,90.9755394 65.9573512,90.4936285 C65.9573512,90.0103563 65.8969639,89.4678663 65.7144294,89.045854 C65.6540421,88.8042179 65.5325812,88.5026833 65.4111203,88.3216264 C65.3507329,88.2011487 65.1681985,87.657978 65.1078112,87.4769211 C65.0467376,87.235285 64.0153493,87.3564433 64.1368102,87.7185572 C64.1971976,87.8989334 64.3186585,88.6238417 64.3186585,88.7436387 C64.3790458,89.3473886 64.6823549,89.7095024 64.6219676,90.3731508 C64.5615803,90.97622 64.8648894,91.5193907 64.9252767,92.12246 C64.9252767,92.0618808 65.2292721,93.2081207 65.775503,92.9664846 Z M60.5554295,69.618993 C61.1016604,69.1357209 60.6158168,67.5068894 60.5554295,67.0242979 C60.3735812,65.7575803 60.0695859,64.731818 59.8877377,63.4644197 C59.7058894,62.1983828 59.4622814,60.8710859 59.1596585,59.6642668 C59.0381976,59.0605169 58.7952758,58.2763908 58.6134276,57.6733216 C58.4919667,57.3112078 58.127584,55.9839109 58.0061231,55.4407402 C57.8846622,54.837671 56.7922004,54.7770918 57.0351222,55.7422748 C57.1565831,56.225547 57.5813531,58.1559131 57.5813531,58.33697 C57.8242749,59.8453237 58.3094323,60.9915636 58.4308932,62.4999174 C58.5523541,64.0075904 59.098585,65.5159442 59.3415067,67.0242979 C59.3415067,67.0848771 60.0695859,70.0410054 60.5554295,69.618993 Z M71.5418074,92.1830392 C72.1484256,91.8808239 71.9055038,91.2777547 71.9055038,91.0966978 C71.9055038,90.6141062 71.7236556,90.1914132 71.7236556,89.6489232 C71.7236556,89.165651 71.6625821,88.623161 71.5418074,88.1405695 C71.4671877,87.8697613 71.3653452,87.6070685 71.237812,87.3564433 C71.1774247,87.235285 70.9948903,86.6927949 70.9345029,86.511738 C70.8741156,86.2701019 69.8420411,86.3912603 69.963502,86.7526935 C70.0238893,86.9337504 70.1453502,87.7185572 70.1453502,87.7784557 C70.2064238,88.3822056 70.5090467,88.8042179 70.4486593,89.4072871 C70.388272,90.011037 70.6915811,90.6141062 70.7526547,91.1565963 C70.6915811,91.2777547 70.9948903,92.4239946 71.5418074,92.1830392 L71.5418074,92.1830392 Z M66.6854303,69.3167778 C67.2323475,68.7742877 66.7465039,66.9643994 66.6854303,66.4212287 C66.4431948,65.0333526 66.1391994,63.8272142 65.9580374,62.4393382 C65.775503,61.0514622 65.4715076,59.6036876 65.1688847,58.2158116 C64.9863503,57.5521632 64.7434285,56.6475593 64.5615803,55.9832303 C64.4401194,55.5612179 64.0153493,54.0528642 63.8938885,53.5103742 C63.7724276,52.7861466 62.6792795,52.7861466 62.9228875,53.8119088 C63.0436622,54.3550795 63.4691184,56.4665024 63.5295058,56.7074579 C63.7724276,58.3968685 64.2575849,59.6642668 64.4401194,61.3529968 C64.6219676,63.0424074 65.1681985,64.731818 65.4111203,66.3606495 C65.4111203,66.4818079 66.200273,69.7394707 66.6854303,69.3167778 L66.6854303,69.3167778 Z M118.945867,82.770803 C118.398949,82.1677337 116.335487,82.6503253 115.728868,82.7109044 C114.089489,82.8919613 112.815179,83.1329168 111.176487,83.2533945 C109.598181,83.3745529 107.899101,83.6155083 106.381183,83.8571444 C105.592031,83.9776221 104.560642,84.2192582 103.831877,84.3397359 C103.34672,84.4602136 101.646953,84.8223274 100.979261,84.8829066 C100.190109,85.0033843 100.068648,86.0291465 101.222183,85.8480896 C101.889875,85.7276119 104.256647,85.3648174 104.560642,85.3648174 C106.502644,85.1844412 107.899101,84.7018497 109.841103,84.6412705 C111.783105,84.5207928 113.664719,84.0382013 115.546334,83.8571444 C115.728868,83.9170429 119.492097,83.3139737 118.945867,82.770803 L118.945867,82.770803 Z M95.4565651,86.3912603 C94.9707215,85.7875104 93.3313426,86.1496242 92.8461852,86.2102034 C91.571189,86.3306811 90.4787271,86.5716366 89.2044171,86.6322157 C87.9194421,86.700236 86.6412374,86.8617611 85.3801145,87.1154879 C84.7734963,87.235285 83.92327,87.4163419 83.3770391,87.5375002 C83.0133427,87.657978 81.6168855,87.9595126 81.0713408,88.0200918 C80.4640364,88.1405695 80.3425755,89.1663317 81.3135764,88.9852748 C81.8598073,88.9246956 83.7414218,88.623161 83.9843436,88.623161 C85.5015754,88.5026833 86.6551108,88.0799903 88.2327299,88.0200918 C89.750648,87.9595126 91.2678798,87.5368196 92.7851117,87.4163419 C92.8461852,87.4163419 95.8806489,86.9337504 95.4558789,86.3912603 L95.4565651,86.3912603 Z" id="Shape" fill="#505A78" fill-rule="nonzero"></path>
            <path d="M49.8777594,59.1474757 C49.8777594,58.9648147 49.9388797,58.7821536 49.9388797,58.6599218 C50.0618148,57.260436 49.8777594,55.8602634 49.5707688,54.7045546 C49.3860189,54.1565714 49.2630837,53.6085883 49.0790283,53.1821502 C49.0172134,52.93906 48.8942783,52.7563989 48.833158,52.5737379 C48.7412173,52.4376891 48.6590582,52.2954217 48.5872877,52.1479865 C47.9733066,51.0520202 47.2975106,50.0782857 46.4369646,49.2872123 C45.5771132,48.4350229 44.6554469,47.7654946 43.61154,47.2786274 C42.5669386,46.7306442 41.3994021,46.3653221 40.2325601,46.1826611 C39.6796992,46.0611159 39.0657181,46.0611159 38.4510424,46 C37.8363667,46 37.2842004,46 36.6695247,46.0611159 C35.5026827,46.1826611 34.3962664,46.5479832 33.2905447,47.0348504 C32.184823,47.5224044 31.2020364,48.191246 30.2803702,48.9823194 C28.8669633,50.1394016 27.5160659,51.6000034 26.7784551,53.3648113 C26.0415388,55.1296192 25.9186036,57.0777749 26.0415388,58.9648147 C26.1644739,60.8518544 26.8402699,62.6777783 27.8230565,64.2599252 C28.805843,65.903188 30.0344999,67.2422446 31.6319621,68.2166657 C32.3688784,68.703533 33.351665,69.129971 34.3351461,69.4334905 C34.8261921,69.5557223 35.379053,69.7376967 35.870099,69.7988126 L36.6688301,69.9203578 C36.9147004,69.9203578 37.2223855,69.9814737 37.4675613,69.9814737 C39.6178844,70.1030188 41.7682075,69.6161516 43.3656698,68.8250781 C43.9185306,68.5813012 44.778382,68.0944339 45.6993538,67.3644764 C46.6217146,66.6338322 47.6045012,65.5996685 48.3414174,64.3814703 C49.1401486,63.1646455 49.6318891,61.6429279 49.8159446,60.4865323 C49.8777594,60.060781 49.8777594,59.7558881 49.9388797,59.5127978 L48.9560931,59.390566 C48.8942783,59.5732271 48.8942783,59.8163173 48.7713432,60.3038713 C48.6491026,60.8518544 48.4643526,61.581812 48.0962417,62.3728854 C47.7274363,63.1646455 47.2356957,64.0772641 46.6217146,64.7467924 C45.5771132,66.0254198 44.287336,66.9991543 43.1197995,67.5471374 C42.5669386,67.7902277 42.0140778,68.0340047 41.6452724,68.1555498 C41.4612169,68.2166657 41.2771615,68.277095 41.1542263,68.3382109 C41.0312912,68.3986401 40.9083561,68.3986401 40.8465412,68.3986401 C39.9255695,68.6424171 38.9420884,68.703533 38.0211167,68.703533 C37.0994504,68.6424171 36.1777841,68.5813012 35.3179327,68.2777817 C34.3962664,68.0340047 33.536415,67.6075667 32.7376839,67.1818153 C32.369573,66.9380384 31.9389527,66.6942614 31.6319621,66.3900552 C31.4472122,66.2685101 31.2631567,66.085849 31.0791013,65.9643039 L30.5873607,65.4767499 C29.2661833,64.1711447 28.2948834,62.5606242 27.7612416,60.7907385 C27.3313159,59.0863598 27.3313159,57.19932 27.8841768,55.3733962 C28.130047,54.3996617 28.5599728,53.5474724 28.9898985,52.6348538 C29.4799049,51.7742632 30.1017129,50.993862 30.833231,50.321376 C32.3077581,48.9823194 34.0892758,48.0690141 36.054849,47.7050654 C37.0376355,47.5217177 38.0204221,47.4001725 39.0039032,47.4612884 C39.9866898,47.4612884 40.9694764,47.6432628 41.9522629,48.0085849 C42.935744,48.3127911 43.7344752,48.9218902 44.5325118,49.5303026 C45.2701226,50.1394016 45.9459186,50.8693592 46.5605943,51.6604326 C46.80577,52.0257547 47.2356957,52.5126219 47.6045012,53.1821502 C47.972612,53.9127945 48.4643526,54.8260997 48.7102229,56.1040404 C48.7713432,56.5297917 48.833158,56.8951139 48.8942783,57.3215519 C48.8942783,57.7473032 49.0172134,58.1730545 48.9560931,58.5994926 C48.9560931,58.8432695 49.0172134,59.1474757 49.0172134,59.390566 L50,59.5127978 C49.8777594,59.390566 49.8777594,59.2690209 49.8777594,59.1474757 L49.8777594,59.1474757 Z" id="Shape" fill="#505A78" fill-rule="nonzero"></path>
            <path d="M43.6690813,54.9547984 C42.9339149,54.7116683 41.6477197,56.1113834 41.219911,56.4163263 C40.1178535,57.3297812 39.3217693,58.1814234 38.2197119,59.0330656 C37.6679909,59.4595735 37.1169622,59.9465206 36.5659334,60.3723417 C36.3215702,60.6161586 36.0149047,60.8599755 35.7698492,61.1037924 L35.4029583,61.4684876 L35.2804305,61.5296135 L35.2188205,61.5907395 C35.2188205,61.5907395 35.2188205,61.6511786 35.1579028,61.5907395 C34.9128473,61.2857966 34.6677918,60.9211014 34.4843463,60.6772845 C34.2392908,60.3119026 33.3213711,59.0948784 33.0147056,58.6072445 C32.6478146,57.9987324 31.6066749,58.3029885 32.1577037,59.2164434 C32.4636769,59.7033905 33.5657343,61.5296135 33.6882621,61.7123045 C33.8107898,61.8949955 33.8723998,62.0776865 33.9942353,62.2603775 C34.0558453,62.3208166 34.1167631,62.5035076 34.2392908,62.6250727 C34.3618186,62.7473245 34.4843463,62.8688896 34.606874,62.9300155 C34.9128473,63.0515806 35.2804305,63.1127065 35.525486,62.9300155 C35.6480137,62.8688896 35.8314592,62.7473245 35.953987,62.6250727 L36.1990425,62.3819425 C36.7485903,61.8279571 37.3423973,61.3189756 37.9746564,60.8599755 C39.3217693,59.8860815 40.4847445,58.6072445 41.7709397,57.5117854 C41.8934674,57.4506595 44.3426378,55.1986153 43.6690813,54.9547984 L43.6690813,54.9547984 Z M96.3878544,94.9503886 C96.9388832,94.5856935 97.4899119,93.3679825 98.0409406,91.9071414 C98.2859961,91.1763774 98.4694416,90.4456135 98.6528871,89.7155363 C98.8370248,88.9847724 98.9595526,88.1935693 99.142998,87.5239313 C99.3880535,86.1235293 99.509889,84.9058183 99.633109,84.1757412 C99.7556368,83.3838513 99.8165545,82.5926482 99.8774723,81.8625711 C99.9390823,81.0706812 100,80.3406041 100,79.6098401 L100,76.26165 L99.8774723,75.1661909 L99.6940268,72.9745858 L99.3271358,70.7829808 C99.2039158,70.0522168 99.0204703,69.3214529 98.8370248,68.5302498 C98.6528871,67.8001726 98.4694416,67.0082828 98.2243861,66.2775188 C97.3057741,63.2342716 95.8984357,60.1903375 94.0612118,57.5117854 C92.2239879,54.8332333 89.958263,52.3984982 87.5707026,50.3895841 C86.9580639,49.9019503 86.2845074,49.4150032 85.6116432,48.8676171 C84.8764768,48.3799832 84.1420025,47.8325971 83.3459183,47.34565 C82.5498341,46.8580162 81.8146677,46.371756 81.0192757,46.006374 C80.6516925,45.823683 80.2841092,45.5805529 79.916526,45.3971751 L78.8144686,44.8497889 C78.4475776,44.667098 77.9574666,44.4239678 77.2846024,44.1801509 C76.6719637,43.8752081 75.9367972,43.570952 75.140713,43.266696 C73.5485446,42.6581839 71.8345407,42.048985 70.42651,41.6231639 C69.5688158,41.379347 69.0177871,41.2577819 68.5892861,41.1355301 C67.4263109,40.8319608 66.5686167,41.0750909 66.3851712,41.5015988 C66.2626434,41.9274199 66.7520622,42.4150538 68.4058406,42.8408749 C68.7118138,42.901314 69.1403148,43.0235659 69.936399,43.266696 C71.4669574,43.7543298 73.7936001,44.605972 75.7533517,45.458301 C77.7124111,46.371756 79.3045795,47.2852109 79.6714705,47.4672151 C82.8558074,49.3545641 85.4884232,51.2412263 87.8157581,53.4939573 C90.1417085,55.6848755 92.2239879,58.2425494 93.8161563,61.4684876 C95.4083247,64.6951127 96.5712999,68.1044287 97.2448564,71.6957489 C97.9184129,75.2877559 98.1018583,78.9402021 97.6740496,82.5322091 C97.6740496,82.7142133 97.5508296,83.9930502 97.3673841,85.6977082 C97.3057741,86.5493504 97.1223286,87.5239313 96.9381909,88.5589513 C96.7547454,89.5328454 96.6329099,90.5678654 96.4487722,91.5417594 C96.0202712,93.6111126 95.8368257,95.3157706 96.3878544,94.9503886 L96.3878544,94.9503886 Z" id="Shape" fill="#505A78" fill-rule="nonzero"></path>
            <path d="M75.6728456,70 L59.1447954,74.0277582 C58.9633858,74.0865576 58.9633858,74.2642921 59.0840982,74.3832273 L65.7798852,78.4103173 C65.9005976,78.4691167 65.9005976,78.5880518 65.8405823,78.7063188 L61.3162545,85.6954281 C61.1955421,85.8130268 61.3762697,86.0495608 61.5576793,85.9907614 L77,82.0819383" id="Shape" fill="#F77D82" fill-rule="nonzero"></path>
            <path d="M76.8900122,81.9363797 C76.3997857,81.689051 75.4179461,81.8130637 74.3140699,81.9983861 C72.2290474,82.4303405 69.7758351,83.1096236 68.7946889,83.2942493 C67.6908127,83.541578 66.6479548,83.8509131 65.6050968,84.0975451 C64.6239506,84.3448738 63.7038226,84.5922026 62.7843881,84.8388346 L62.4161982,84.9621506 C62.3544865,84.9621506 62.3544865,84.9001443 62.3544865,84.9001443 C62.3544865,84.8388346 62.4161982,84.8388346 62.4161982,84.8388346 L62.5389282,84.6535122 L62.5999464,84.5915059 L62.5999464,84.5301962 L62.6616581,84.4061835 C62.7843881,84.1595515 62.9681363,83.9742291 63.0908663,83.7269004 C63.3973444,83.294946 63.7038226,82.8002885 64.0109942,82.3070245 C64.5012206,81.6277413 64.9304288,80.8864519 65.4213486,80.2071687 L66.3414766,78.8486025 C66.5252248,78.4779577 66.5869365,78.1693193 66.4642065,77.860681 C66.3896399,77.6986395 66.2854426,77.552114 66.1570349,77.4287266 C66.034305,77.3047138 65.7895385,77.1813978 65.6668085,77.1193915 C64.3784907,76.3167923 63.1518845,75.5141932 61.8642601,74.7729037 L60.9441321,74.2169366 L60.6986722,74.0936206 C62.5389282,73.5996598 64.9921405,72.9203767 66.7706847,72.4264159 C67.8135426,72.1177776 70.941423,71.3144817 72.9647338,70.7592113 C73.5783836,70.5738889 74.0075917,70.5118826 74.3140699,70.3885666 C76.0315959,69.9566122 76.3387675,68.5353429 73.8238435,69.1533163 C73.5783836,69.2153227 73.2719054,69.2766323 72.658949,69.4619547 C70.3277732,70.0179218 65.6050968,71.1911657 65.0531587,71.3151784 C64.0720125,71.5618104 63.1518845,71.7471328 62.23245,71.9937648 C61.1278804,72.2410936 60.0857158,72.549732 59.1045696,72.7970607 C58.7363797,72.8583703 58.4909198,72.9823831 58.3681899,73.1056991 C58.2454599,73.2290151 58.12273,73.3523311 58.0617117,73.4763438 C58,73.5996598 58,73.7229758 58,73.8469886 C58,73.9703046 58.0617117,73.9703046 58.0617117,74.0936206 C58.12273,74.2169366 58.1844416,74.402259 58.4292081,74.588278 C58.8591097,74.8962197 59.5337777,75.2668645 59.9629859,75.5755029 L60.8831138,76.13147 C61.4960702,76.5021147 62.10972,76.8727594 62.7843881,77.3047138 C63.0908663,77.4900362 63.3973444,77.7366682 63.7655343,77.9226873 C63.9492825,78.0460033 64.0720125,78.107313 64.2557607,78.2313257 L64.5012206,78.4166481 L64.6239506,78.4779577 L64.6856623,78.5399641 C64.6856623,78.6019704 64.6239506,78.6019704 64.6239506,78.6019704 L64.0720125,79.4658792 C63.6901357,80.0331923 63.3220678,80.6097669 62.9681363,81.1950902 L61.8642601,82.9243012 L61.2506103,83.8509131 L60.6986722,84.7148219 C60.514924,85.024157 60.2694641,85.3327954 60.2084458,85.5794274 C60.1467341,85.8267561 60.1467341,86.0113818 60.2084458,86.1353945 C60.2084458,86.1974009 60.2694641,86.2587105 60.2694641,86.3207169 C60.2694641,86.3827232 60.3311757,86.5060392 60.4532123,86.5680456 C60.514924,86.6913616 60.5759423,86.6913616 60.6376539,86.753368 C60.6986722,86.8146776 60.7603839,86.8146776 60.8214022,86.876684 C60.9441321,86.9379936 61.1278804,87 61.4350519,87 C62.0759307,86.8643735 62.7103434,86.6995498 63.3363262,86.5060392 L64.3174724,86.2587105 C65.6050968,85.8887625 66.954433,85.5794274 68.2420574,85.270789 C68.4875173,85.2094793 71.9835875,84.2828675 74.6822598,83.418262 C76.1543258,82.6156629 77.380932,82.1217021 76.8900122,81.9363797 L76.8900122,81.9363797 Z" id="Shape" fill="#505A78" fill-rule="nonzero"></path>
            <path d="M53,54.6578913 L117.05996,43.0185153 C117.791093,42.8974713 118.522915,43.3823313 118.644886,44.1099633 L124.861931,80.5394319 C125.775675,85.9344399 122.057301,91.0258121 116.572078,91.693264 L69.5790169,97.9362641 C67.323598,98.2392162 65.0075385,97.4507203 63.4226123,95.8149161 L61.7164049,94.057384 C61.7770455,94.057384 53,81.7519239 53,54.6572074 L53,54.6578913 Z" id="Shape"></path>
            <path d="M78.0042577,97.5001361 C78.6130488,97.8646805 79.9517014,97.9257812 81.4121122,97.8042663 C86.8272576,97.1953193 93.2164687,96.2829284 95.7107926,95.9176975 C101.42999,95.1872356 106.724065,94.3963596 112.017452,93.6658977 C113.356104,93.4839687 114.633534,93.3013533 115.972186,93.1187378 L116.945564,92.997223 C117.310151,92.9354358 117.676114,92.8750216 118.0407,92.8146075 C118.39534,92.7495594 118.742122,92.6473894 119.075301,92.5097907 C119.439888,92.3882759 119.744628,92.2056604 120.109902,92.0841456 C122.786519,90.8065238 124.97748,88.3721086 125.889634,85.2690186 C126.316132,83.7476807 126.437202,82.1041414 126.133151,80.5223894 C125.889634,79.0621521 125.707341,77.662329 125.463825,76.2020917 C124.97748,73.3420314 124.550982,70.4215569 124.064637,67.5614965 C123.091259,61.7809616 122.117881,56.0601544 121.205038,50.5226491 C120.961522,49.1839267 120.718006,47.6625888 120.413954,46.1419374 C120.352731,45.7767064 120.292196,45.3503748 120.230973,44.9851439 L120.109902,44.3768833 L120.048679,44.072753 L119.988144,43.8290369 C119.988144,43.7686227 119.926921,43.6464214 119.926921,43.5860073 C119.683405,42.8555454 119.075301,42.307699 118.405975,42.0646694 C118.041388,41.9431545 117.676114,41.8820539 117.310839,41.9431545 L117.006787,41.9431545 L116.702048,42.0035687 C113.477175,42.5514151 110.252989,43.1596757 107.575684,43.6464214 C104.472569,44.1942678 93.824572,46.0808367 89.6868561,46.8112986 C87.4360487,47.175843 86.8272576,49.0013112 90.2344241,48.4541513 C94.4326752,47.7847901 109.94825,45.22886 111.530419,44.9851439 C113.234346,44.7421142 114.937585,44.437984 116.519754,44.1942678 L117.128546,44.072753 L117.432597,44.0116524 L117.614891,44.0116524 C117.736649,44.0116524 117.858407,44.072753 117.918942,44.1338537 C117.953768,44.1653607 117.975594,44.2086791 117.980165,44.2553685 L117.980165,44.437984 L118.0407,44.7421142 C118.101923,45.1073452 118.162459,45.5329903 118.223682,45.8982212 C118.77125,49.0013112 119.318818,52.043987 119.805851,55.0255622 C120.839764,61.0498132 121.874365,67.0740642 122.908278,73.8898778 C123.151794,75.5938312 123.395311,77.297098 123.699362,79.0010514 L123.882344,80.2793597 L124.003414,80.948721 L124.064637,81.4958809 C124.125172,82.2263427 124.125172,83.0172188 124.003414,83.7476807 C123.517069,86.7292558 121.326797,89.4067007 118.46651,90.3801922 C118.101923,90.501707 117.736649,90.6239084 117.371374,90.6843225 L116.823806,90.8065238 L116.093945,91.0495534 L113.538398,91.4147844 C111.834471,91.6585005 110.131231,91.9022167 108.366769,92.1452463 C104.958914,92.631992 101.551748,93.1187378 98.1445812,93.5443829 C97.5970132,93.6054835 88.3488914,94.944206 81.2291309,96.1614136 C79.1000817,96.7085735 77.4573776,97.1953193 78.0049456,97.5001361 L78.0042577,97.5001361 Z M81.2298188,49.2450273 C80.6210277,48.8797964 79.283063,48.8797964 77.8219643,49.0013112 C76.118725,49.2450273 74.3542626,49.4887435 72.5898002,49.7317731 L71.3116828,49.9143886 C71.0681664,49.9754892 70.8253379,49.9754892 70.5205983,50.0359034 C70.1560116,50.097004 69.9124951,50.1581047 69.6689787,50.3400336 C69.1819458,50.7052646 68.9391172,51.3746258 69.1214106,51.9224722 C69.1214106,52.043987 69.1819458,52.2266025 69.2431689,52.3481173 C69.303704,52.4703186 69.303704,52.5918335 69.3649271,52.7133483 C69.4254622,52.8959637 69.4866853,53.0174785 69.5472205,53.2007805 C69.9737182,54.356201 70.2165467,55.2692783 70.4600632,55.9386396 C71.9810091,60.8678843 73.2591265,65.4312115 74.2930396,69.9952253 C75.2664175,74.559239 76.118725,79.2447676 76.1792602,84.2955271 C76.1792602,86.7903565 75.9969668,89.3456001 75.3276405,91.6585005 C74.9630537,92.8146075 74.536556,93.9103003 73.8672297,94.8226912 C73.1979035,95.7357685 72.3462838,96.4044432 71.3729059,96.7696742 C70.338305,97.1349051 69.1819458,97.3175206 68.1480327,97.1349051 C67.6004647,97.0738045 67.1134318,96.891189 66.6263989,96.70926 C66.1400539,96.4655439 65.653021,96.2218278 65.2272112,95.8565968 C64.3143685,95.1872356 63.523284,94.2748448 62.8539577,93.3013533 C62.1744937,92.3103283 61.5646989,91.2734786 61.0289601,90.1982633 C59.9943592,88.0679783 59.0209813,85.3905334 58.2298968,82.5915737 C57.4388123,79.8530281 56.8307091,76.9929678 56.3436762,74.6196532 C55.7947687,71.7154982 55.3482757,68.792992 55.0050236,65.8575431 C54.7621951,64.0313884 54.5792138,62.145506 54.4574556,60.4415527 C54.3969204,60.0159076 54.3969204,59.6506766 54.3356973,59.2854457 C54.3356973,58.9813154 54.2751622,58.6771851 54.2751622,58.4341555 C54.2139391,57.277362 53.7275941,56.5469001 53.3017843,56.486486 C52.8752866,56.4253853 52.4494767,57.0947465 52.571235,58.7986999 C52.571235,59.0417295 52.632458,59.3465463 52.632458,59.7117773 C52.6929932,60.3200379 52.6929932,60.9887126 52.7542162,61.7191744 C52.9365096,63.7883588 53.118803,66.2227741 53.4235425,68.534988 C53.9711106,73.1594159 54.8227302,77.4186128 54.9438006,78.2101754 C55.5525917,81.2528512 56.283141,84.1733257 57.1959837,86.8507706 C58.1693616,89.5893162 59.2644977,92.1452463 60.968425,94.5178744 C61.8200446,95.6746679 62.7934225,96.7696742 64.0103169,97.6827515 C64.619108,98.1083966 65.2884342,98.4736276 66.0182957,98.7777578 C66.7481571,99.0818881 67.5392416,99.2034029 68.3303261,99.2651901 C69.1214106,99.3256043 69.9124951,99.2651901 70.7035796,99.0818881 C71.4946641,98.9603733 72.2857486,98.656243 73.0149222,98.230598 C74.4760209,97.4390354 75.6929152,96.100313 76.4833118,94.578975 C77.2743963,93.0576371 77.700894,91.4758851 78.0049456,89.8934465 C78.2472866,88.3025126 78.3691605,86.6956156 78.3695324,85.0864031 C78.3695324,81.9215259 78.0049456,78.7580218 77.5179127,75.6542453 C76.4833118,69.4480654 74.8406076,63.4231278 73.1373683,57.5210782 C73.0761452,57.277362 72.406819,55.2081777 71.4334411,52.4703186 L71.2511477,51.9224722 L71.2511477,51.8009574 C71.4334411,51.7398568 71.6157345,51.7398568 71.7987157,51.6787561 C72.2245256,51.618342 72.6503354,51.4968271 73.0761452,51.4357265 C74.7800725,51.1315962 76.4833118,50.7663653 78.1267039,50.462235 C80.1339948,50.097004 81.7773869,49.5491576 81.2291309,49.2450273 L81.2298188,49.2450273 Z M57.6830166,37.257626 C56.9524673,36.8319809 54.8832654,37.7443717 54.2139391,37.9269872 C52.5106998,38.413733 51.1115121,38.8400646 49.4075849,39.0830942 C47.7036576,39.2657097 45.9391952,39.4483251 44.2964911,39.2657097 C43.5054066,39.204609 42.4102705,38.9608929 41.680409,38.7178632 C41.4368926,38.6567626 40.8893245,38.413733 40.3417565,38.1700168 C39.7941884,37.9269872 39.2466204,37.5617563 39.0031039,37.3187267 C38.6990523,37.0750105 38.3337776,37.0750105 38.0902612,37.1965253 C37.9079678,37.3180401 37.9079678,37.7443717 38.454848,38.1700168 C38.7595875,38.413733 39.4894489,38.9004787 40.2199982,39.2657097 C40.9498597,39.6302541 41.680409,39.9350709 41.8021673,39.9350709 C42.8360803,40.2996153 43.8094582,40.4822308 44.8440591,40.5433314 C45.817437,40.6044321 46.7908149,40.5433314 47.8866389,40.5433314 C50.0769111,40.4822308 52.1454251,39.7524554 54.2139391,39.204609 C54.2751622,39.204609 55.3702983,38.839378 56.283141,38.413733 C57.1959837,37.9263007 57.9863803,37.4402415 57.6823287,37.257626 L57.6830166,37.257626 Z M42.8966155,28.1906991 C43.0183737,27.8254682 43.2006671,27.8254682 43.3224253,27.8865689 L43.5659417,27.8865689 C43.6877,27.8865689 43.8087703,27.8865689 43.8699933,27.946983 C44.1135098,27.946983 44.2958032,28.0080837 44.5393196,28.0080837 L45.5739206,28.0080837 C45.5739206,28.0080837 45.6351436,28.0080837 45.6956788,28.0691843 C45.6956788,28.0691843 45.7569019,28.0691843 45.7569019,28.1295985 C45.7569019,28.1906991 45.817437,28.3122139 45.7569019,28.3733146 C45.7591042,28.5012455 45.688102,28.6192571 45.5739206,28.6774449 C45.5133854,28.7989597 45.3916272,28.9815752 45.331092,29.1641906 C45.2093338,29.4683209 45.331092,29.8946525 45.2093338,30.1987828 C45.1481107,30.3813983 45.1481107,30.5640138 45.0875756,30.6855286 C45.0263525,30.8070434 45.0263525,30.9896588 44.9658174,31.1111736 C44.8440591,31.4159905 44.6617657,31.5368187 44.5393196,31.6590201 C44.4787845,31.7201207 44.4787845,31.7805349 44.4182493,31.7805349 C44.4182493,31.8416355 44.3570262,31.8416355 44.2964911,31.8416355 C44.2359559,31.8416355 43.9924395,31.5979194 43.8699933,31.4159905 C43.8094582,31.3542033 43.748923,31.233375 43.6883879,31.0507595 C43.6271648,30.868144 43.5666296,30.6251144 43.5054066,30.3813983 C43.4448714,30.1376821 43.3231132,29.8335519 43.201355,29.6509364 C43.0795967,29.2252913 42.9578385,28.9815752 42.8973034,28.737859 L41.9844606,28.9815752 C42.0449958,29.1641906 42.1062189,29.4072203 42.2279771,29.8946525 C42.2885122,30.1376821 42.4102705,30.5029131 42.4708056,30.9285582 C42.5925639,31.6590201 43.0190616,32.3290678 43.1401319,32.4498961 C43.201355,32.5720974 43.3231132,32.6325116 43.3836484,32.7547129 C43.5054066,32.8762277 43.6271648,32.9366418 43.748923,32.9977425 C44.0529746,33.1192573 44.3570262,33.180358 44.6617657,33.1192573 C44.9596752,33.0527083 45.2334127,32.9054231 45.4528502,32.6936122 C45.6351436,32.5109968 45.817437,32.3283813 45.9391952,32.0853517 C46.1827117,31.6597066 46.2432469,31.233375 46.365693,30.8070434 C46.4867633,30.4418124 46.6697446,30.1376821 46.7908149,29.7120371 C46.852038,29.5294216 46.9125731,29.286392 46.9737962,29.10309 L47.0343314,28.7385456 C47.0343314,28.6163442 47.0955544,28.4337288 47.0955544,28.3129005 L47.0955544,27.6428527 C47.0955544,27.5817521 47.0343314,27.4602373 47.0343314,27.3387224 C46.9737962,26.9734915 46.7302797,26.6082606 46.4262281,26.3652309 C46.2432469,26.2430296 46.0616414,26.1826155 45.8786601,26.1826155 L45.331092,26.1826155 C45.1481107,26.2430296 44.9045943,26.2430296 44.7223009,26.2430296 C44.2964911,26.2430296 43.8706812,26 43.4448714,26 L43.2618901,26 C43.1401319,26 42.9578385,26 42.8360803,26.0611007 C42.5320287,26.1215148 42.166754,26.3652309 41.9232376,26.790876 C41.8627024,26.9123908 41.8021673,27.0950063 41.8021673,27.2165211 C41.8021673,27.3998231 41.7409442,27.5213379 41.8021673,27.6428527 C41.8021673,28.0080837 41.9473141,28.9451894 41.9844606,28.9815752 C42.2974549,29.1161339 42.3696844,29.3248373 42.5292771,29.21568 C42.6475958,29.1346701 42.8973034,28.7385456 42.8973034,28.7385456 C42.8360803,28.5291556 42.8360803,28.2511133 42.8973034,28.1906991 L42.8966155,28.1906991 Z" id="Shape" fill="#505A78" fill-rule="nonzero"></path>
            <path d="M61.8956159,92.0648751 C60.3679874,89.0007643 58.8410464,85.8760053 57.2529178,82.8118945 C57.8634192,82.0310494 57.7410439,80.5885879 56.5200411,80.2881038 C56.0312275,80.1681858 55.5424139,80.0482678 55.1147879,79.9876197 C54.7483496,79.9276607 54.3819113,79.9276607 54.0766606,80.1082268 C40.3933169,79.1468155 26.5264103,81.0696381 12.9042542,78.6657653 C11.0108749,78.3053222 10.155623,81.2502042 12.1101899,81.5499991 C26.0987843,84.0138309 40.2702541,82.0910084 54.3207236,83.1123786 C54.259536,83.4128627 54.3207236,83.7133468 54.5042866,84.0737899 C55.786477,86.5369325 57.0081673,89.0007643 58.230545,91.4639069 C58.7805463,92.5459253 59.2686724,93.5672956 59.8186737,94.6486248 C60.0627367,95.1296751 61.284427,96.9918495 61.5896777,97.8326536 C61.5896777,97.8933018 61.5291776,97.8933018 61.5291776,97.9532608 L61.4673024,98.0738679 C61.2232394,98.6748361 61.5896777,99.4556813 62.139679,99.7554762 C62.2008666,99.7554762 62.2620542,99.8161243 62.3232419,99.8161243 C63.1173062,100.236526 64.3994966,99.9360423 64.5830595,98.914672 C64.9494979,96.7520135 62.811368,93.9876977 61.8949284,92.0648751 L61.8956159,92.0648751 Z M76.835025,78.9104255 C76.4541491,76.1481772 75.9467729,73.4458878 75.1850212,70.7435985 C74.8048328,69.1825974 72.6481404,69.4823923 72.1407643,70.6836395 C71.1260119,70.5037625 69.8575715,71.2846077 70.1745098,72.5451247 C70.9995117,75.9083412 72.014264,79.2109096 73.2194542,82.39356 C73.5363924,83.2343641 74.2342065,83.5948072 75.1857087,83.4142411 C77.4689014,83.1144462 77.0247754,80.4714266 76.835025,78.9104255 L76.835025,78.9104255 Z M96.9526958,65.500978 C95.7564431,61.9723573 94.0803143,58.6863294 91.8067466,55.7655688 C89.6521167,52.9674829 86.4806719,49.3768357 82.8307261,49.0115684 C80.5564709,48.7689757 80.5564709,52.4195819 82.8307261,52.6628637 C85.5827949,52.9667937 88.6346144,57.3479346 90.0708051,59.4775123 C91.9263719,62.2755982 93.3020625,65.4396406 94.1408144,68.7256686 C96.2342567,76.6354301 95.3968798,84.9704179 93.8410637,92.8801794 C93.3625626,95.1923908 96.8330705,96.1662074 97.3115716,93.853996 C99.1664509,84.5445024 100.064328,74.6271487 96.9526958,65.500978 L96.9526958,65.500978 Z" id="Shape" fill="#505A78" fill-rule="nonzero" opacity="0.25"></path>
        </g>
    </g>
</svg>