<svg width="324" height="199" viewBox="0 0 324 199" xmlns="http://www.w3.org/2000/svg"><title>hero-transparency-reports@1x</title><g fill="none" fill-rule="evenodd"><g transform="translate(-841 -244)"><g transform="translate(841 244)"><path d="M193.712 98.475l16.452-18.17a1.337 1.337 0 0 1 1.68-.178c3.627 2.748 14.949 8.243 18.133 19.678 2.919 10.37 13.798 18.79 18.575 20.563.796.266 1.061 1.33.53 1.95l-24.854 28.896c-.354.443-.973.531-1.504.266-3.627-1.862-15.833-8.42-20.344-23.046-.973-3.19-3.36-6.027-6.191-8.42" fill="#FFF" fill-rule="nonzero"/><path d="M196.277 120.014c.177.975 1.415 2.481 2.565 4.254 1.062 1.418 1.946 2.925 2.388 4.61.354.886.62 1.86.973 2.747.354.886.796 1.684 1.15 2.57 1.592 3.28 3.45 5.673 4.511 7.091 2.477 3.103 5.307 5.762 8.315 7.889a51.64 51.64 0 0 0 4.687 2.925l.62.355.353.177.531.266c.708.266 1.504.266 2.123-.089.354-.177.62-.443.884-.709l.531-.532.885-.975c4.6-5.318 9.287-10.725 14.417-16.486 1.946-2.127 3.804-4.343 5.75-6.47l2.918-3.28.266-.355c.088-.177.265-.266.353-.443.266-.266.354-.532.443-.886.265-.62.265-1.33 0-1.95-.177-.62-.62-1.153-1.15-1.507-.265-.177-.62-.266-.973-.443l-.354-.178c-.088 0-.177-.088-.177-.088-1.946-.975-3.892-2.393-5.66-3.812-1.77-1.506-3.45-3.102-4.954-4.875-1.504-1.772-2.83-3.634-3.892-5.584-.265-.531-.53-.975-.796-1.506l-.619-1.507a50.454 50.454 0 0 0-1.15-3.368c-1.238-3.812-4.069-7.712-7.341-10.814-3.361-3.102-7.253-5.496-10.26-7.446-.089-.088-.266-.177-.354-.265-.089-.09-.177-.178-.266-.178-.177-.088-.265-.177-.442-.266a2.535 2.535 0 0 0-2.123-.177c-.354.089-.707.355-1.061.71l-.442.442-.266.266c-.354.355-.707.798-1.061 1.241-1.504 1.773-3.361 3.812-5.219 5.85-2.83 3.191-5.749 6.47-7.341 8.332-2.3 2.482-1.238 5.052 2.123 1.418 1.769-1.95 5.837-6.47 9.73-10.725 1.15-1.24 2.299-2.57 3.36-3.723.266-.265.531-.62.796-.886.089-.089.089-.177.266-.177h.265c.177.088.354.266.442.354 2.212 1.507 3.804 2.482 4.246 2.837 3.538 2.482 6.545 5.14 8.845 8.243.354.354.53.798.796 1.152.266.355.53.798.708 1.241l.707 1.241.531 1.24.53 1.33.443 1.33c.354.975.62 1.95 1.061 2.925.797 1.861 1.858 3.634 3.008 5.318 1.15 1.684 2.476 3.28 3.892 4.787 1.415 1.506 3.007 2.925 4.599 4.254 1.68 1.33 3.45 2.57 5.572 3.723.089 0 .177.088.266.088.088 0 .177.09.177.09s.088 0 .088.088c.089 0 .089.088.089.088 0 .089-.089.178-.089.178l-.088.177-.266.354-.53.62-2.3 2.571c-1.504 1.684-3.007 3.457-4.6 5.23-3.007 3.457-6.014 7.002-9.021 10.548l-4.511 5.318-2.212 2.659-.796.354-.088-.088c-3.98-2.039-7.519-4.698-10.614-7.889-.266-.266-2.565-2.482-4.777-6.027-.619-.886-1.061-1.861-1.68-2.836l-.796-1.596-.354-.798-.354-.886c-.177-.532-.442-1.152-.62-1.684-.264-.71-.53-1.33-.795-1.95a15.089 15.089 0 0 0-2.3-3.368c-2.388-2.393-4.688-3.634-4.51-2.66z" fill="#505A78" fill-rule="nonzero"/><path d="M213.525 90.41c-.708.088-1.946.974-3.096 2.126-.707.532-1.415 1.33-1.68 1.596-1.327 1.24-2.3 2.482-3.715 3.723a42.309 42.309 0 0 0-3.98 3.988c-.62.71-1.327 1.596-1.858 2.393-.265.355-1.061 1.419-1.592 2.039-.62.71-1.061 1.152-1.327 1.507-1.68 1.861-.973 3.811 1.592 1.063.266-.265.531-.62 1.15-1.33.708-.708 2.035-2.215 2.211-2.304 1.681-1.506 2.477-3.102 4.246-4.431 1.77-1.419 3.007-3.28 4.688-4.787.088-.088 1.061-1.152 1.68-2.216 1.327-1.95 2.389-3.457 1.681-3.368zm5.66 5.229c-.707.088-1.945.975-3.095 2.127-.707.532-1.415 1.33-1.68 1.595-1.327 1.241-2.3 2.482-3.715 3.723a42.309 42.309 0 0 0-3.98 3.989c-.62.709-1.327 1.595-1.858 2.393-.265.354-1.062 1.418-1.592 2.039-.62.709-1.062 1.152-1.327 1.506-1.68 1.862-.973 3.812 1.592 1.064.265-.266.53-.62 1.15-1.33.708-.709 2.034-2.215 2.211-2.304 1.68-1.507 2.477-3.102 4.246-4.432 1.769-1.418 3.007-3.28 4.688-4.786.088-.089 1.061-1.153 1.68-2.216 1.327-1.95 2.389-3.457 1.68-3.368zm5.662 5.23c-.708.088-1.946.974-3.096 2.126-.708.532-1.415 1.33-1.68 1.596-1.327 1.24-2.3 2.482-3.716 3.723a42.309 42.309 0 0 0-3.98 3.988c-.619.71-1.327 1.596-1.857 2.393-.266.355-1.062 1.419-1.592 2.04-.62.708-1.062 1.151-1.327 1.506-1.68 1.861-.973 3.811 1.592 1.064.265-.266.53-.62 1.15-1.33.707-.71 2.034-2.216 2.211-2.305 1.68-1.506 2.477-3.102 4.246-4.431 1.769-1.419 3.007-3.28 4.688-4.787.088-.088 1.061-1.152 1.68-2.216 1.327-1.861 2.388-3.456 1.68-3.368zm3.096 8.065c-.708.089-1.946.975-3.096 2.127-.708.532-1.415 1.33-1.68 1.596-1.328 1.24-2.3 2.482-3.716 3.723a42.309 42.309 0 0 0-3.98 3.988c-.62.71-1.327 1.596-1.857 2.393-.266.355-1.062 1.419-1.593 2.039-.619.71-1.061 1.152-1.326 1.507-1.68 1.861-.973 3.811 1.592 1.063.265-.265.53-.62 1.15-1.33.707-.708 2.034-2.215 2.21-2.304 1.681-1.506 2.478-3.102 4.247-4.431 1.769-1.419 3.007-3.28 4.687-4.787.089-.088 1.062-1.152 1.681-2.216 1.327-1.95 2.388-3.457 1.68-3.368zm4.068 6.914c-.707.088-1.946.975-3.096 2.127-.707.532-1.415 1.33-1.68 1.595-1.327 1.241-2.3 2.482-3.715 3.723a42.309 42.309 0 0 0-3.98 3.989c-.62.709-1.327 1.595-1.858 2.393-.265.355-1.061 1.418-1.592 2.039-.619.709-1.061 1.152-1.327 1.506-1.68 1.862-.973 3.812 1.592 1.064.266-.266.531-.62 1.15-1.33.708-.709 2.035-2.215 2.212-2.304 1.68-1.507 2.476-3.102 4.245-4.432 1.77-1.418 3.008-3.28 4.688-4.786.089-.089 1.062-1.152 1.68-2.216 1.416-1.861 2.389-3.457 1.681-3.368zm4.865 6.204c-.708.089-1.946.975-3.096 2.128-.707.531-1.415 1.33-1.68 1.595-1.327 1.24-2.3 2.482-3.715 3.723a42.309 42.309 0 0 0-3.98 3.988c-.62.71-1.327 1.596-1.858 2.394-.265.354-1.061 1.418-1.592 2.038-.62.71-1.061 1.152-1.327 1.507-1.68 1.861-.973 3.811 1.592 1.064.266-.266.531-.62 1.15-1.33.708-.709 2.035-2.216 2.211-2.304 1.681-1.507 2.477-3.103 4.246-4.432 1.77-1.418 3.007-3.28 4.688-4.787.088-.088 1.061-1.152 1.68-2.216 1.327-1.95 2.389-3.456 1.681-3.368z" fill="#505A78" fill-rule="nonzero"/><path d="M257.131 139.248l12.295-39c.177-.62.796-.975 1.415-.798 4.511.975 17.071 1.24 24.678 10.282 6.987 8.243 20.344 11.345 25.385 10.902.885-.089 1.504.71 1.239 1.596l-10.526 36.606a1.33 1.33 0 0 1-1.238.887c-4.07-.178-17.867-1.064-28.128-12.41-5.749-6.381-19.017-6.824-23.97-6.47-.796.089-1.415-.798-1.15-1.595z" fill="#FFF" fill-rule="nonzero"/><path d="M256.247 140.134c.088.266.177.532.354.71a66454.627 66454.627 0 0 1 .442.442l.088.089h.089c.088 0 .088.089.177.089.177.088.442.177.619.266h2.919c2.034 0 4.068.177 5.926.443 1.857.266 3.538.62 4.953.975 1.415.354 2.565.797 3.361 1.063 1.504.532 2.83 1.241 4.069 2.128 1.238.886 2.123 1.861 3.273 3.102a32.609 32.609 0 0 0 7.518 6.027c5.66 3.368 12.03 5.141 18.486 5.762l1.062.088c.265 0 1.06.089 1.68-.088.62-.178 1.15-.532 1.504-1.153.177-.266.265-.532.354-.886l.176-.62c1.239-4.521 2.389-9.219 3.892-14.094 1.416-4.786 3.185-9.484 4.6-14.27.53-1.684.973-3.457 1.415-5.23l.354-1.33.177-.531c.088-.177.088-.443.177-.62.088-.444 0-.798-.089-1.153-.177-.798-.708-1.418-1.415-1.773a2.444 2.444 0 0 0-1.15-.265h-1.15c-1.238 0-2.653-.09-3.892-.266-4.776-.887-9.464-2.482-13.533-4.964-2.034-1.24-3.891-2.748-5.395-4.432l-1.238-1.33c-.443-.443-.885-.974-1.327-1.418-.442-.443-.973-.886-1.504-1.33-.53-.354-1.061-.797-1.592-1.151-2.123-1.419-4.688-2.66-7.43-3.546-2.742-.886-5.75-1.418-8.58-1.861-1.415-.177-2.83-.355-4.157-.62-.177 0-.619-.09-.884-.09-.266 0-.62 0-.885.09-.53.177-1.061.531-1.326.974-.354.444-.443 1.241-.531 1.419-.089.354-.177.62-.266.975-.796 2.57-1.592 5.14-2.3 7.356-.972 3.103-3.183 10.194-5.395 17.284-1.15 3.635-2.3 7.8-3.184 10.814-.177.798-.354 1.33-.442 1.861l1.769.532c.088-.354.265-.797.619-1.772.973-3.014 2.83-8.953 4.51-14.36 2.92-9.218 5.75-18.259 6.28-19.854.266-.71.443-1.418.709-2.039l.176-.709.266-.266c.088-.088.265 0 .354 0l.53.089.531.089c.708.088 1.415.177 2.034.354 2.742.443 5.307.886 7.784 1.596 2.654.797 5.13 1.86 7.341 3.19l.796.532.797.62.796.621c.265.177.442.443.707.62l.708.621c.265.177.442.443.707.71l1.416 1.506c1.946 2.127 4.245 3.811 6.722 5.23 2.476 1.418 5.13 2.57 7.784 3.456 1.592.532 3.272.975 4.953 1.419 1.769.354 3.538.709 5.484.709h.265c.089 0 .089 0 .177.088.088.089.177.178.088.266 0 .089 0 .089-.088.177v.09l-.088.176-.089.355c-.177.532-.354 1.064-.442 1.507-1.77 5.672-3.273 11.522-4.953 17.284-1.593 5.318-3.185 10.725-4.777 16.132h-.088l-.973-.089c-.708 0-1.415-.089-2.123-.177-1.415-.089-2.83-.355-4.334-.62a37.002 37.002 0 0 1-8.226-2.571 30.36 30.36 0 0 1-7.164-4.698l-1.593-1.507c-.53-.443-.973-1.063-1.415-1.595l-.707-.798-.885-.886c-.265-.355-.62-.532-.973-.798-.354-.266-.619-.532-.973-.71-2.653-1.683-7.253-3.545-15.39-4.165-1.239-.089-2.565-.089-3.892-.089-.62 0-1.327.089-1.946.089l-.973.089c-.265 0-.177.088-.177.088s-.177.089-.177-.088l-1.769-.532c-.177.354-.177.798-.088 1.152z" fill="#D3D6DD" fill-rule="nonzero"/><path d="M276.59 107.96c-1.15.354-1.857 3.279-2.21 4.076-.797 2.128-1.328 3.989-2.212 6.116-.885 2.128-1.592 4.343-2.3 6.47-.354 1.064-.707 2.483-.973 3.546-.177.71-.796 3.102-1.15 3.989-.353 1.063.973 1.95 1.416.354.265-.886 1.326-4.166 1.503-4.52.973-2.57 1.327-4.698 2.477-7.18 1.15-2.481 1.68-5.23 2.653-7.8.266-.177 1.858-5.318.796-5.052zm7.342 2.392c-1.15.355-1.858 3.28-2.211 4.078-.796 2.127-1.327 3.988-2.212 6.115-.884 2.128-1.592 4.344-2.3 6.47-.353 1.065-.707 2.483-.972 3.546-.177.71-.796 3.103-1.15 3.989-.354 1.064.973 1.95 1.415.355.265-.887 1.327-4.166 1.504-4.52.973-2.571 1.326-4.699 2.476-7.18 1.15-2.482 1.68-5.23 2.654-7.8.177-.178 1.857-5.407.796-5.053zm7.341 2.393c-1.15.355-1.857 3.28-2.211 4.078-.796 2.127-1.327 3.988-2.211 6.116-.885 2.127-1.592 4.343-2.3 6.47-.354 1.064-.708 2.482-.973 3.546-.177.709-.796 3.102-1.15 3.988-.354 1.064.973 1.95 1.415.355.266-.887 1.327-4.166 1.504-4.52.973-2.571 1.327-4.698 2.477-7.18 1.15-2.482 1.68-5.23 2.653-7.8.177-.178 1.77-5.407.796-5.053zm6.192 6.028c-1.15.354-1.858 3.28-2.211 4.077-.797 2.127-1.327 3.989-2.212 6.116-.884 2.127-1.592 4.343-2.3 6.47-.353 1.064-.707 2.482-.972 3.546-.177.709-.796 3.102-1.15 3.988-.354 1.064.973 1.95 1.415.355.265-.886 1.327-4.166 1.504-4.52.973-2.57 1.326-4.698 2.476-7.18 1.15-2.482 1.68-5.23 2.654-7.8.177-.177 1.769-5.407.796-5.052zm6.545 4.52c-1.15.355-1.857 3.28-2.211 4.077-.796 2.128-1.327 3.99-2.211 6.116-.885 2.128-1.593 4.344-2.3 6.47-.354 1.064-.708 2.483-.973 3.546-.177.71-.796 3.103-1.15 3.989-.354 1.064.973 1.95 1.415.354.266-.886 1.327-4.165 1.504-4.52.973-2.57 1.327-4.698 2.477-7.18 1.15-2.481 1.68-5.23 2.653-7.8.265-.088 1.858-5.318.796-5.052zm6.988 3.634c-1.15.355-1.858 3.28-2.212 4.078-.796 2.127-1.326 3.988-2.21 6.115-.885 2.128-1.593 4.344-2.3 6.47-.354 1.065-.708 2.483-.973 3.546-.177.71-.797 3.103-1.15 3.989-.354 1.064.973 1.95 1.415.355.265-.887 1.327-4.166 1.504-4.52.973-2.571 1.326-4.699 2.476-7.18 1.15-2.482 1.68-5.23 2.654-7.8.177-.178 1.769-5.319.796-5.053z" fill="#D3D6DD" fill-rule="nonzero"/><path d="M41.046 139.07h.53c.178 0 .355.178.266.355l-20.52 52.118c-.177.532 6.014.266 6.368-.177l35.292-52.207c.088-.089.177-.089.177-.089h13.71c.088 0 .177.09.265.178l6.369 14.802a50.63 50.63 0 0 0 13.975 18.88l15.479 15.688 8.049 4.432c.442.355.973-.177.707-.62l-13.621-25.085c-2.211-3.988-3.804-8.243-4.865-12.675l-3.626-15.156c0-.178.088-.355.265-.355h26.712c1.061 0 1.857-.886 1.857-1.861-.088-3.723-.53-12.675-2.034-23.666-11.852 1.063-31.93 2.482-53.513 2.482-23.174 0-40.51-1.596-49.267-2.66l5.838 15.69 11.587 9.926z" fill="#B3D8F6" fill-rule="nonzero"/><path d="M125.694 113.543c-2.83-20.475-9.553-47.863-25.563-60.273-1.503-1.152-2.3-3.102-2.3-4.963.266-10.282-1.503-27.123-15.92-27.123-14.772 0-18.398 17.639-19.194 27.832a6.208 6.208 0 0 1-2.742 4.609c-18.133 12.498-30.162 39.443-37.061 59.74 8.756 1.065 26.093 2.66 49.267 2.66 21.582-.089 41.66-1.507 53.513-2.482z" fill="#FFF" fill-rule="nonzero"/><path d="M10.708.975c-.266.975.619 2.925 2.034 4.61 1.15 1.417 2.565 2.658 3.892 3.722.619.532 1.327.975 1.857 1.418l.796.532c.089.088.177.088.177.177.089.089.089.266.089.443 0 .089-.089.178-.089.178l-.265.531c-3.184 5.673-4.776 11.523-4.511 18.26.088 3.81 1.061 7.71 2.565 11.256 1.504 3.546 3.538 6.825 5.75 9.839 2.21 2.925 5.66 6.47 8.314 8.775.707.62 2.034 1.773 3.538 3.014 1.503 1.24 3.272 2.481 4.688 3.456 1.06.71 1.769 1.241 2.3 1.596 1.414.975 2.741 1.063 3.183.532.443-.444-.088-1.419-2.034-2.837-.354-.266-.884-.62-1.857-1.33-1.504-1.152-3.804-2.924-5.75-4.608-1.857-1.684-3.45-3.191-3.715-3.546-3.007-3.102-5.484-6.027-7.606-9.13-2.123-3.102-3.98-6.47-4.954-10.547-1.061-3.989-1.415-8.243-.884-12.32 0-.532.088-1.064.265-1.507l.266-1.507c.265-.975.619-2.039.884-3.014.442-.975.796-1.95 1.238-2.925l.708-1.418.354-.71.177-.354.177-.266c.088-.088.088-.265.177-.354.088-.177.53-1.064.088-2.305-.177-.62-.708-1.33-1.415-1.772a12.938 12.938 0 0 0-1.15-.798A57.565 57.565 0 0 1 14.688 3.9C12.21 2.039 10.973.089 10.708.975z" fill="#505A78" fill-rule="nonzero"/><path d="M71.031 27.389c1.061 1.152 2.477 1.684 4.423 1.24 1.769-.354 3.272-1.595 4.687-2.57 1.15-.886 2.742-.798 3.892.177l1.062.975c.53.444.796 1.064.884 1.773.442 2.925.708 5.23 3.184 7.446 2.477 2.215 5.484 2.747 8.757 2.304.088 0 .177-.089.265-.089 0 .355.089.798.089 1.153.088 1.684 1.857 2.659 3.36 1.95 3.804-1.862 7.873-4.787 8.05-9.484.088-2.66-1.15-5.141-3.184-6.56 2.565-6.204-1.504-12.94-8.138-13.295.354-4.698-2.123-9.395-6.634-11.257C87.13-.798 81.91.975 78.815 4.698c-6.9-5.23-17.248-.443-16.983 8.243-4.51.177-8.226 4.875-8.668 9.573-.708 7.534 5.13 13.206 12.383 13.472 1.238 0 1.946-.797 2.123-1.772" fill="#409EEB" fill-rule="nonzero"/><path d="M101.193 145.098c-.443.886-.354 2.836 0 5.052.53 2.127.973 4.255 1.503 6.56.62 2.215 1.327 4.43 2.212 6.558.884 2.127 1.946 4.255 3.007 6.205l3.184 5.85a912.041 912.041 0 0 0 5.926 10.902c.885 1.684 1.77 3.28 2.565 4.786.089.178.177.266.177.444l.089.177c.088.088 0 .177-.089.177-.265.089-.53.177-.796.089h-.265c-.177 0-.265-.089-.442-.089-.266-.089-.531-.177-.796-.354-.266-.09-.443-.266-.62-.444-.176-.177-.353-.354-.619-.531-.884-.887-1.592-1.685-2.3-2.305-3.272-3.28-6.456-6.56-9.464-9.661-1.503-1.596-3.007-3.103-4.51-4.61-.354-.354-.708-.709-1.062-1.152l-.53-.532-.09-.088-.088-.089-.177-.088-.265-.266a15.516 15.516 0 0 1-2.123-2.039c-4.953-4.875-8.58-10.548-11.145-16.486-1.326-3.014-2.653-6.028-3.891-9.041-.708-1.596-1.327-3.103-2.035-4.698-.265-.71-.619-1.24-1.238-1.33-.265-.088-.708-.088-1.061-.088H63.159c-.265 0-.53.088-.708.266a3.853 3.853 0 0 0-.53.62l-.708 1.064-2.123 3.28c-2.83 4.343-5.66 8.686-8.58 13.118-5.837 8.775-11.675 17.727-17.867 27.034-.884 1.33-1.68 2.57-2.565 3.9l-.619.975c-.177.266-.354.531-.619.797-.442.444-.885.887-1.415 1.153-1.062.62-2.3.975-3.538.797-.177 0-.177 0-.266-.088l.089-.089.177-.532c2.3-5.85 4.688-11.7 6.987-17.55 2.3-5.85 4.688-11.7 6.988-17.55l3.45-8.775 1.769-4.343.619-1.684c.088-.355.088-.71.088-.975 0-.177-.088-.355-.177-.532-.088-.177-.088-.177-.265-.354-.265-.266-.53-.532-.885-.71l-.619-.531-.884-.71a300.905 300.905 0 0 1-6.28-4.874c-.531-.444-.973-.798-1.504-1.153-.442-.354-.884-.797-1.327-1.24-.442-.444-.796-.887-1.238-1.33-.354-.443-.708-.975-1.061-1.418-1.327-1.95-2.389-4.166-3.008-6.56-.619-2.304-.796-4.697-.619-7.09.089-1.153.354-2.393.62-3.546.353-1.24.707-2.393 1.06-3.634.354-1.24.797-2.393 1.15-3.634.443-1.152.885-2.393 1.327-3.545 1.77-4.698 3.892-9.219 6.28-13.65 2.565-4.698 5.75-9.662 9.465-14.537 3.803-4.786 8.225-9.395 13.267-13.207l1.858-1.418.973-.709c.442-.266.796-.62 1.15-1.063.707-.798 1.238-1.685 1.503-2.66.177-.443.265-.975.354-1.506l.088-.71.089-.62a61.428 61.428 0 0 1 1.503-9.13c.708-2.924 1.681-5.672 3.096-8.154 1.327-2.393 3.008-4.52 5.042-5.939.62-.531 1.504-.975 2.388-1.418.973-.354 2.034-.709 3.273-.975 2.476-.354 5.572-.266 8.314 1.152 1.415.71 2.654 1.773 3.715 3.103 1.061 1.33 1.946 2.925 2.654 4.609 1.326 3.457 2.034 7.445 2.3 11.434.088.975.088 2.039.088 3.014V48.484c0 .266 0 .62.088.886a8.28 8.28 0 0 0 1.327 3.457 5.96 5.96 0 0 0 1.238 1.33l1.15.975c3.007 2.482 5.573 5.495 7.695 8.509l.796 1.064c.177.177.266.443.443.62.265.355.442.71.619 1.064.884 1.418 1.946 2.127 2.565 1.861.619-.177.707-1.33-.62-3.545-.176-.266-.442-.71-.707-1.153-.177-.266-.354-.443-.53-.709l-.531-.798c-.354-.443-.62-.886-.973-1.33-.708-.885-1.415-1.86-2.212-2.747a41.031 41.031 0 0 0-5.218-5.14c-1.946-1.419-2.654-2.926-2.477-5.408 0-5.14-.354-10.547-2.123-15.688-.884-2.57-2.122-5.052-3.98-7.091-1.857-2.039-4.245-3.546-6.722-4.166a13.44 13.44 0 0 0-3.715-.532c-1.238-.088-2.388 0-3.626.177-2.3.355-4.511 1.241-6.28 2.394-3.539 2.393-5.573 5.495-6.811 7.888-1.239 2.393-1.858 4.255-2.123 5.141-.885 2.66-1.504 5.407-1.946 8.155-.265 1.33-.354 2.747-.53 4.077l-.09.975-.088.443c0 .089 0 .266-.088.355a3.921 3.921 0 0 1-.53 1.418c-.266.443-.62.798-.974 1.152-.353.266-.973.71-1.503 1.064-1.062.798-2.123 1.507-3.185 2.393-.972.886-2.034 1.684-3.007 2.57-.973.887-1.857 1.773-2.83 2.66-3.627 3.634-6.9 7.622-9.818 11.7-2.92 4.077-5.484 8.42-7.784 12.763-2.3 4.432-4.246 8.952-5.926 13.562-.885 2.304-1.592 4.697-2.3 7.09-.354 1.153-.707 2.394-.973 3.635-.177.62-.177 1.33-.265 1.95-.089.62-.089 1.33-.177 1.95-.177 5.23 1.415 10.547 4.51 14.89.797 1.064 1.681 2.128 2.566 3.014.442.443.973.975 1.504 1.33l.796.62.796.62c2.034 1.596 4.068 3.103 6.103 4.698.442.355.796.62 1.238.975.089 0 .089.089.177.089s0 .089 0 .177c-.354.887-.708 1.862-1.15 2.837-.884 2.215-1.857 4.609-2.742 6.913-1.946 4.787-3.892 9.75-6.014 14.891-3.362 8.42-6.811 16.93-10.172 25.439-.177.532-.443 1.063-.531 1.507 0 .177 0 .443.088.62l.089.266c.088.089.088.177.177.266.088.177.265.354.442.443.177.177.442.177.62.355.441.265.972.354 1.503.443.265.088.53.088.796.088h1.592c.708-.088 1.415-.177 2.034-.443 1.327-.443 2.566-1.152 3.538-2.127.531-.443.973-.975 1.327-1.596l.973-1.418c2.477-3.811 4.953-7.534 7.43-11.345 4.953-7.534 9.907-15.157 14.86-22.78 2.476-3.811 4.953-7.622 7.43-11.345l1.415-2.127h11.94l.09.088.707 1.596c.884 2.127 1.857 4.254 2.742 6.381.884 2.128 1.857 4.255 2.742 6.47.973 2.217 2.122 4.344 3.36 6.383 2.566 4.077 5.573 7.8 9.111 11.08.442.442.885.797 1.327 1.152l.177.177s.088.088 0 0l.265.266.62.62 2.388 2.482c1.592 1.684 3.184 3.28 4.864 4.964.354.354 1.77 1.772 3.98 3.988 1.062 1.153 2.389 2.393 3.892 3.9l2.389 2.393c.53.532 1.238.975 1.946 1.33.353.177.707.355 1.15.443.176.089.353.089.619.177.088 0 .176 0 .353.09h.443c.884.088 1.68-.09 2.388-.267.707-.266 1.415-.62 1.68-1.152 0-.089.089-.177.089-.266 0-.089 0-.089.088-.177 0-.089.089-.266.089-.443v-.532l-.089-.266c-.088-.089-.088-.177-.177-.266-.353-.71-.796-1.418-1.15-2.127-.884-1.684-1.857-3.369-2.83-5.141-1.946-3.546-3.98-7.268-6.015-10.991-1.061-1.862-2.122-3.812-3.184-5.762-1.061-1.86-2.034-3.722-2.83-5.76-.796-1.95-1.504-3.99-2.123-5.94-.53-1.95-1.061-4.077-1.592-6.115-1.062-3.014-2.035-5.319-2.388-4.432z" fill="#505A78" fill-rule="nonzero"/><path d="M87.66 115.848c-.796-.62-2.742-.887-4.865-1.064-2.034-.177-4.511-.089-5.396-.089-2.21-.088-4.157 0-6.191 0s-3.98-.088-6.103-.265c-4.334-.355-8.757-.62-13.002-.71-2.035-.088-4.954-.088-6.988-.088-1.061 0-4.157 0-6.103-.089-1.238-.088-2.035-.088-2.742-.177-3.361-.177-4.776 2.216.177 2.482.442 0 1.15.088 2.3.177 2.3.177 6.987.443 7.518.443 5.218.532 9.287.177 14.417.798 5.13.62 10.526.354 15.656.354.177 0 3.715-.088 6.457-.443 3.184-.266 5.66-.709 4.865-1.33z" fill="#505A78" fill-rule="nonzero"/><path d="M87.748 79.33L180.71 62.31c1.061-.177 2.123.532 2.3 1.596l9.022 53.27c1.326 7.889-4.07 15.334-12.03 16.31l-68.195 9.129c-3.273.443-6.634-.71-8.934-3.102l-2.476-2.57c.088 0-12.649-17.994-12.649-57.614z" fill="#FFF" fill-rule="nonzero"/><path d="M123.57 141.464c.885.531 2.831.62 4.954.443 7.872-.887 17.16-2.216 20.786-2.748 8.314-1.064 16.01-2.216 23.705-3.28 1.946-.265 3.803-.531 5.749-.797l1.415-.177c.53-.09 1.062-.178 1.592-.266a7.46 7.46 0 0 0 1.504-.444c.53-.177.973-.443 1.504-.62 3.891-1.861 7.076-5.407 8.402-9.927.62-2.216.796-4.61.354-6.914-.354-2.127-.619-4.166-.973-6.293-.707-4.166-1.327-8.42-2.034-12.586-1.415-8.42-2.83-16.753-4.157-24.819-.354-1.95-.708-4.166-1.15-6.381-.089-.532-.177-1.153-.266-1.685l-.176-.886-.089-.443-.088-.355c0-.088-.089-.266-.089-.354-.354-1.064-1.238-1.862-2.211-2.216-.53-.177-1.061-.266-1.592-.177h-.442l-.443.088c-4.688.798-9.375 1.684-13.267 2.393-4.511.798-19.99 3.546-26.005 4.61-3.272.531-4.157 3.19.796 2.393 6.103-.975 28.658-4.698 30.958-5.053 2.477-.354 4.953-.797 7.253-1.152l.885-.177.442-.089h.265c.177 0 .354.089.442.178a.275.275 0 0 1 .089.177v.266l.088.443c.089.532.177 1.152.266 1.684.796 4.52 1.592 8.952 2.3 13.295 1.503 8.775 3.007 17.55 4.51 27.478.354 2.482.708 4.963 1.15 7.445l.266 1.862.176.975.089.797c.088 1.064.088 2.216-.089 3.28-.707 4.343-3.891 8.243-8.049 9.661-.53.177-1.061.355-1.592.443l-.796.178-1.061.354-3.715.532c-2.477.355-4.953.71-7.518 1.064-4.954.709-9.907 1.418-14.86 2.038-.796.089-14.24 2.039-24.59 3.812-3.095.797-5.483 1.506-4.687 1.95zm3.096-70.023c-.884-.532-2.83-.532-4.953-.355-2.123.266-4.422.62-6.634.975l-1.592.266-.53.089c-.177 0-.443.089-.62.089-.442.088-.707.265-1.06.62-1.328 1.24 0 3.368.088 3.9.796 2.216 1.326 4.077 1.68 5.23 2.123 7.09 3.892 13.65 5.396 20.297.707 3.28 1.326 6.648 1.769 10.105.442 3.457.796 6.913.707 10.548-.088 3.545-.354 7.268-1.415 10.547-.53 1.596-1.327 3.191-2.3 4.343-1.061 1.241-2.3 2.04-3.803 2.57-1.504.444-3.184.621-4.6.267a9.804 9.804 0 0 1-4.157-2.127c-2.476-2.128-4.334-5.23-5.837-8.332-1.504-3.103-2.83-7.003-3.98-10.991-1.15-3.989-2.035-8.066-2.654-11.523a192.903 192.903 0 0 1-1.946-12.586c-.354-2.66-.62-5.318-.796-7.8-.089-.62-.089-1.153-.177-1.684 0-.444-.089-.887-.089-1.241-.088-1.684-.796-2.748-1.415-2.837-.619-.088-1.238.887-1.061 3.369 0 .354.088.797.088 1.33.089.885.089 1.86.177 2.924.265 3.014.53 6.47.973 9.75.796 6.648 1.946 12.852 2.211 13.916.885 4.432 1.858 8.598 3.273 12.498 1.327 3.9 3.007 7.622 5.307 11.08 1.15 1.683 2.477 3.367 4.246 4.697 1.68 1.33 3.803 2.393 6.103 2.66 1.15.176 2.3.176 3.45 0 1.15-.178 2.3-.444 3.36-.976 2.212-.975 4.07-2.836 5.308-4.964 1.238-2.127 1.945-4.431 2.388-6.736.442-2.304.619-4.609.707-6.914.089-4.609-.353-9.13-1.061-13.56-1.415-8.953-3.715-17.64-6.192-26.149-.088-.354-1.238-3.988-2.83-8.597-.089-.266-.177-.444-.265-.71l-.089-.177v-.088s-.088 0 .354-.089l1.592-.266c2.211-.443 4.423-.798 6.457-1.24 2.919-.887 5.307-1.685 4.422-2.128z" fill="#505A78" fill-rule="nonzero"/><path d="M106.5 135.79c.884-.442.53-1.329.53-1.595 0-.709-.265-1.33-.265-2.038 0-.71-.088-1.507-.354-2.127-.088-.355-.265-.798-.442-1.064-.088-.177-.354-.975-.442-1.241-.089-.355-1.592-.177-1.415.355.088.265.265 1.33.265 1.506.088.887.53 1.419.442 2.394-.088.886.354 1.684.442 2.57 0-.089.443 1.595 1.239 1.24zm-7.607-34.301c.796-.71.088-3.103 0-3.812-.265-1.861-.708-3.368-.973-5.23-.265-1.86-.62-3.81-1.061-5.583-.177-.887-.531-2.039-.796-2.925-.177-.532-.708-2.482-.885-3.28-.177-.886-1.769-.975-1.415.443.177.71.796 3.546.796 3.812.354 2.216 1.061 3.9 1.238 6.116.177 2.215.973 4.431 1.327 6.647 0 .089 1.061 4.432 1.769 3.812zm16.01 33.15c.884-.444.53-1.33.53-1.596 0-.709-.265-1.33-.265-2.127 0-.71-.089-1.507-.265-2.216a6.162 6.162 0 0 0-.443-1.152c-.088-.178-.354-.975-.442-1.241-.088-.355-1.592-.177-1.415.354.088.266.265 1.419.265 1.507.089.887.53 1.507.442 2.393-.088.887.354 1.773.443 2.57-.089.178.353 1.862 1.15 1.508zm-7.077-33.594c.797-.797.089-3.456 0-4.254-.353-2.039-.796-3.811-1.06-5.85-.266-2.039-.709-4.166-1.15-6.205-.266-.975-.62-2.304-.885-3.28-.177-.62-.796-2.836-.973-3.633-.177-1.064-1.77-1.064-1.415.443.176.798.796 3.9.884 4.254.354 2.482 1.061 4.344 1.327 6.825.265 2.482 1.061 4.964 1.415 7.357 0 .178 1.15 4.964 1.857 4.343zm76.157 19.766c-.797-.886-3.804-.177-4.688-.088-2.389.266-4.246.62-6.634.797-2.3.178-4.776.532-6.988.887-1.15.177-2.653.532-3.715.709-.707.177-3.184.709-4.157.798-1.15.177-1.327 1.684.354 1.418.973-.177 4.422-.71 4.865-.71 2.83-.265 4.865-.974 7.695-1.063 2.83-.177 5.572-.886 8.314-1.152.266.088 5.75-.798 4.954-1.596zm-34.23 5.319c-.708-.887-3.097-.355-3.804-.266-1.858.177-3.45.531-5.307.62a38.304 38.304 0 0 0-5.573.71c-.884.176-2.123.442-2.919.62-.53.177-2.565.62-3.36.709-.885.177-1.062 1.684.353 1.418.796-.089 3.538-.532 3.892-.532 2.211-.177 3.892-.798 6.191-.886 2.212-.089 4.423-.71 6.634-.887.089 0 4.511-.709 3.892-1.506z" fill="#505A78" fill-rule="nonzero"/><ellipse fill="#9FE6AF" fill-rule="nonzero" transform="rotate(-82.785 65.552 85.01)" cx="65.552" cy="85.009" rx="16.452" ry="16.487"/><path d="M82.53 86.598c0-.266.088-.532.088-.71.177-2.038-.088-4.077-.53-5.76-.266-.798-.443-1.596-.708-2.217-.089-.354-.266-.62-.354-.886a5.087 5.087 0 0 1-.354-.62c-.884-1.596-1.857-3.014-3.096-4.166-1.238-1.241-2.565-2.216-4.068-2.925-1.504-.798-3.185-1.33-4.865-1.596-.796-.177-1.68-.177-2.565-.266-.885 0-1.68 0-2.565.089-1.68.177-3.273.709-4.865 1.418-1.592.71-3.007 1.684-4.334 2.836-2.035 1.685-3.98 3.812-5.042 6.382-1.061 2.57-1.238 5.407-1.061 8.155.177 2.748 1.15 5.407 2.565 7.711 1.415 2.393 3.184 4.343 5.484 5.762 1.061.709 2.476 1.33 3.892 1.772.707.178 1.503.443 2.21.532l1.15.177c.354 0 .797.089 1.15.089 3.096.177 6.192-.532 8.492-1.684.796-.355 2.034-1.064 3.36-2.127 1.328-1.064 2.743-2.57 3.804-4.344 1.15-1.772 1.858-3.988 2.123-5.672.089-.62.089-1.064.177-1.418l-1.415-.178c-.089.266-.089.62-.266 1.33-.176.798-.442 1.861-.972 3.013-.531 1.153-1.239 2.482-2.123 3.457-1.504 1.862-3.361 3.28-5.042 4.078-.796.354-1.592.709-2.123.886-.265.089-.53.177-.707.266-.177.088-.354.088-.443.088-1.326.355-2.742.444-4.068.444-1.327-.089-2.654-.178-3.892-.62-1.327-.355-2.565-.976-3.715-1.596-.53-.355-1.15-.71-1.592-1.153-.266-.177-.531-.443-.796-.62l-.708-.71a16.186 16.186 0 0 1-4.069-6.824c-.619-2.482-.619-5.23.177-7.889.354-1.418.973-2.659 1.592-3.988a13.934 13.934 0 0 1 2.654-3.369c2.123-1.95 4.688-3.28 7.518-3.81 1.415-.267 2.83-.444 4.246-.355 1.415 0 2.83.265 4.245.797 1.416.443 2.566 1.33 3.715 2.216 1.062.887 2.035 1.95 2.92 3.102.353.532.972 1.241 1.503 2.216.53 1.064 1.238 2.394 1.592 4.255.088.62.177 1.152.265 1.773 0 .62.177 1.24.089 1.861 0 .355.088.798.088 1.152l1.415.178c-.176-.178-.176-.355-.176-.532z" fill="#505A78" fill-rule="nonzero"/><path d="M74.304 79.152c-1.062-.354-2.92 1.684-3.538 2.128-1.592 1.33-2.742 2.57-4.334 3.81-.797.621-1.593 1.33-2.389 1.95-.353.355-.796.71-1.15 1.065l-.53.531-.177.089-.089.089s0 .088-.088 0c-.354-.444-.708-.975-.973-1.33-.354-.532-1.68-2.304-2.123-3.014-.53-.886-2.034-.443-1.238.887.442.709 2.034 3.368 2.211 3.634.177.266.266.532.442.798.089.088.177.354.354.531.177.178.354.355.531.444.442.177.973.266 1.327 0 .177-.089.442-.266.619-.444l.354-.354a20.99 20.99 0 0 1 2.565-2.216c1.946-1.418 3.626-3.28 5.484-4.875.177-.089 3.715-3.368 2.742-3.723zm76.156 58.234c.796-.531 1.592-2.304 2.388-4.431.354-1.064.619-2.128.884-3.191.266-1.064.443-2.216.708-3.191.354-2.039.53-3.812.708-4.875.177-1.153.265-2.305.353-3.368.089-1.153.177-2.216.177-3.28v-4.875l-.177-1.595-.265-3.191-.53-3.191c-.178-1.064-.443-2.128-.708-3.28-.266-1.063-.531-2.216-.885-3.28-1.327-4.431-3.36-8.863-6.014-12.763-2.654-3.9-5.927-7.445-9.376-10.37-.885-.71-1.858-1.419-2.83-2.216-1.062-.71-2.123-1.507-3.273-2.216-1.15-.71-2.212-1.418-3.361-1.95-.531-.266-1.062-.62-1.593-.887l-1.592-.797c-.53-.266-1.238-.62-2.21-.975-.885-.444-1.947-.887-3.097-1.33-2.3-.886-4.776-1.773-6.81-2.393-1.239-.355-2.035-.532-2.654-.71-1.68-.442-2.919-.088-3.184.533-.177.62.53 1.33 2.919 1.95.442.088 1.061.266 2.211.62 2.211.71 5.572 1.95 8.403 3.191 2.83 1.33 5.13 2.66 5.66 2.925 4.6 2.748 8.403 5.495 11.765 8.775 3.36 3.19 6.368 6.914 8.668 11.611 2.3 4.698 3.98 9.662 4.953 14.891.973 5.23 1.238 10.548.62 15.778 0 .265-.178 2.127-.443 4.609-.089 1.24-.354 2.659-.62 4.166-.265 1.418-.441 2.925-.707 4.343-.619 3.013-.884 5.495-.088 4.963z" fill="#505A78" fill-rule="nonzero"/><path d="M119.944 101.045l-24.235 6.028c-.266.088-.266.354-.089.532l9.818 6.027c.177.088.177.266.089.443l-6.634 10.46c-.177.176.088.53.354.442l22.643-5.85" fill="#F77D82" fill-rule="nonzero"/><path d="M121.713 119.216c-.707-.355-2.123-.177-3.715.089-3.007.62-6.545 1.595-7.96 1.86-1.592.355-3.096.799-4.6 1.153-1.415.355-2.742.71-4.068 1.064l-.531.177c-.089 0-.089-.089-.089-.089 0-.088.089-.088.089-.088l.177-.266.088-.089v-.088l.089-.178c.177-.354.442-.62.619-.975.442-.62.884-1.33 1.327-2.038.707-.975 1.326-2.039 2.034-3.014l1.327-1.95c.265-.532.354-.975.177-1.418a2.046 2.046 0 0 0-.443-.62c-.177-.178-.53-.355-.707-.444-1.858-1.152-3.627-2.304-5.484-3.368l-1.327-.798-.354-.177c2.654-.709 6.192-1.684 8.757-2.393 1.504-.443 6.015-1.596 8.933-2.393.885-.266 1.504-.355 1.946-.532 2.477-.62 2.92-2.66-.707-1.773-.354.089-.796.177-1.68.443-3.362.798-10.173 2.482-10.969 2.66-1.415.354-2.742.62-4.068.974-1.593.355-3.096.798-4.511 1.153-.531.088-.885.266-1.062.443-.177.177-.354.354-.442.532-.089.177-.089.354-.089.532 0 .177.089.177.089.354.088.177.177.443.53.71.62.442 1.593.974 2.212 1.417l1.327.798c.884.532 1.769 1.064 2.742 1.684.442.266.884.62 1.415.887.265.177.442.265.707.443l.354.266.177.088.089.089c0 .089-.089.089-.089.089l-.796 1.24a60.54 60.54 0 0 0-1.592 2.482l-1.592 2.482-.885 1.33-.796 1.24c-.265.444-.619.887-.707 1.241-.089.355-.089.62 0 .798 0 .089.088.177.088.266 0 .089.089.266.265.355.089.177.177.177.266.266.088.088.177.088.265.177.177.088.442.177.885.177a31.173 31.173 0 0 0 2.742-.709l1.415-.355c1.857-.531 3.803-.975 5.66-1.418.354-.088 5.396-1.418 9.288-2.659 2.123-1.152 3.892-1.861 3.184-2.127z" fill="#505A78" fill-rule="nonzero"/><path d="M87.748 79.33L180.71 62.31c1.061-.177 2.123.532 2.3 1.596l9.022 53.27c1.326 7.889-4.07 15.334-12.03 16.31l-68.195 9.129c-3.273.443-6.634-.71-8.934-3.102l-2.476-2.57c.088 0-12.649-17.994-12.649-57.614z"/><path d="M123.57 141.464c.885.531 2.831.62 4.954.443 7.872-.887 17.16-2.216 20.786-2.748 8.314-1.064 16.01-2.216 23.705-3.28 1.946-.265 3.803-.531 5.749-.797l1.415-.177c.53-.09 1.062-.178 1.592-.266a7.46 7.46 0 0 0 1.504-.444c.53-.177.973-.443 1.504-.62 3.891-1.861 7.076-5.407 8.402-9.927.62-2.216.796-4.61.354-6.914-.354-2.127-.619-4.166-.973-6.293-.707-4.166-1.327-8.42-2.034-12.586-1.415-8.42-2.83-16.753-4.157-24.819-.354-1.95-.708-4.166-1.15-6.381-.089-.532-.177-1.153-.266-1.685l-.176-.886-.089-.443-.088-.355c0-.088-.089-.266-.089-.354-.354-1.064-1.238-1.862-2.211-2.216-.53-.177-1.061-.266-1.592-.177h-.442l-.443.088c-4.688.798-9.375 1.684-13.267 2.393-4.511.798-19.99 3.546-26.005 4.61-3.272.531-4.157 3.19.796 2.393 6.103-.975 28.658-4.698 30.958-5.053 2.477-.354 4.953-.797 7.253-1.152l.885-.177.442-.089h.265c.177 0 .354.089.442.178a.275.275 0 0 1 .089.177v.266l.088.443c.089.532.177 1.152.266 1.684.796 4.52 1.592 8.952 2.3 13.295 1.503 8.775 3.007 17.55 4.51 27.478.354 2.482.708 4.963 1.15 7.445l.266 1.862.176.975.089.797c.088 1.064.088 2.216-.089 3.28-.707 4.343-3.891 8.243-8.049 9.661-.53.177-1.061.355-1.592.443l-.796.178-1.061.354-3.715.532c-2.477.355-4.953.71-7.518 1.064-4.954.709-9.907 1.418-14.86 2.038-.796.089-14.24 2.039-24.59 3.812-3.095.797-5.483 1.506-4.687 1.95zm4.689-70.289c-.885-.532-2.83-.532-4.954-.355-2.476.355-5.041.71-7.606 1.064l-1.858.266c-.354.089-.707.089-1.15.177-.53.089-.884.178-1.238.443-.708.532-1.061 1.507-.796 2.305 0 .177.088.443.177.62.088.178.088.355.177.532.088.266.177.443.265.71.62 1.683.973 3.013 1.327 3.988 2.211 7.18 4.069 13.827 5.572 20.475 1.415 6.648 2.654 13.473 2.742 20.83 0 3.634-.265 7.356-1.238 10.725-.53 1.684-1.15 3.28-2.123 4.609-.973 1.33-2.211 2.304-3.626 2.836-1.504.532-3.185.798-4.688.532-.796-.089-1.504-.355-2.212-.62-.707-.355-1.415-.71-2.034-1.242-1.327-.975-2.477-2.304-3.45-3.722a37.84 37.84 0 0 1-2.653-4.52c-1.504-3.103-2.919-7.003-4.069-11.08-1.15-3.989-2.034-8.155-2.742-11.612a183.778 183.778 0 0 1-1.946-12.763c-.353-2.66-.619-5.407-.796-7.889-.088-.62-.088-1.152-.177-1.684 0-.443-.088-.886-.088-1.24-.089-1.685-.796-2.749-1.415-2.837-.62-.089-1.239.886-1.062 3.368 0 .354.089.798.089 1.33.088.886.088 1.86.177 2.924.265 3.014.53 6.56.973 9.928.796 6.736 2.034 12.94 2.21 14.093.885 4.432 1.947 8.686 3.274 12.586 1.415 3.989 3.007 7.712 5.484 11.168 1.238 1.685 2.653 3.28 4.422 4.61.885.62 1.858 1.152 2.919 1.595 1.061.443 2.211.62 3.361.71 1.15.088 2.3 0 3.45-.267 1.15-.177 2.3-.62 3.36-1.24 2.124-1.153 3.893-3.103 5.042-5.319 1.15-2.216 1.77-4.52 2.212-6.825a46.66 46.66 0 0 0 .53-7.002c0-4.61-.53-9.218-1.238-13.739-1.504-9.04-3.892-17.816-6.368-26.413-.089-.355-1.062-3.369-2.477-7.357l-.265-.798v-.177c.265-.089.53-.089.796-.178.619-.088 1.238-.265 1.857-.354 2.477-.443 4.953-.975 7.342-1.418 2.918-.532 5.307-1.33 4.51-1.773zm-34.23-17.461c-1.062-.62-4.07.709-5.043.975-2.476.709-4.51 1.33-6.987 1.684-2.477.266-5.042.532-7.43.266-1.15-.089-2.742-.444-3.803-.798-.354-.089-1.15-.443-1.946-.798-.796-.354-1.592-.886-1.946-1.24-.442-.355-.973-.355-1.327-.178-.265.177-.265.798.53 1.418.443.355 1.504 1.064 2.566 1.596 1.061.531 2.123.975 2.3.975 1.503.531 2.918.797 4.422.886 1.415.089 2.83 0 4.423 0 3.184-.089 6.191-1.152 9.198-1.95.089 0 1.681-.532 3.008-1.152 1.327-.71 2.476-1.418 2.034-1.684zM72.534 40.507c.177-.532.442-.532.619-.443h.354c.177 0 .353 0 .442.088.354 0 .619.089.973.089H76.426s.089 0 .177.089c0 0 .089 0 .089.088 0 .089.088.266 0 .355a.488.488 0 0 1-.266.443c-.088.177-.265.443-.353.709-.177.443 0 1.064-.177 1.507-.089.266-.089.532-.177.709-.089.177-.089.443-.177.62-.177.444-.442.62-.62.798-.088.089-.088.177-.176.177 0 .089-.089.089-.177.089s-.442-.355-.62-.62c-.088-.09-.176-.266-.264-.532-.089-.266-.177-.62-.266-.975-.088-.355-.265-.798-.442-1.064-.177-.62-.354-.975-.442-1.33l-1.327.355c.088.266.177.62.354 1.33.088.354.265.886.353 1.506.177 1.064.797 2.04.973 2.216.089.178.266.266.354.444.177.177.354.265.531.354.442.177.884.266 1.327.177a2.412 2.412 0 0 0 1.15-.62c.265-.266.53-.532.707-.886.354-.62.442-1.241.62-1.862.176-.532.442-.975.618-1.595.089-.266.177-.62.266-.887l.088-.531c0-.178.089-.444.089-.62v-.976c0-.089-.089-.266-.089-.443-.088-.532-.442-1.064-.884-1.418-.266-.178-.53-.266-.796-.266h-.796c-.266.088-.62.088-.885.088-.619 0-1.238-.354-1.857-.354h-.266c-.177 0-.442 0-.619.089-.442.088-.973.443-1.327 1.063-.088.177-.176.443-.176.62 0 .267-.089.444 0 .621 0 .532.211 1.897.265 1.95.455.196.56.5.792.341.172-.118.535-.695.535-.695-.089-.305-.089-.71 0-.798zm241.343 157.122c-.796-.534-2.653-.839-4.863-.99-14.15-.23-30.863-.153-37.496-.153-30.067-.153-55.27 0-85.16-.229-29.802-.228-60.842-.305-90.113-.228-14.327 0-33.959.152-48.285.228-7.782.076-34.488.229-45.012.229-3.36 0-4.598 2.133.354 2.133h54.21c36.08.229 63.582-.305 99.397.152 35.55.381 71.985 0 107.623.229 1.503 0 25.645 0 44.482-.305 3.095-.228 5.57-.533 4.863-1.066z" fill="#505A78" fill-rule="nonzero"/><path d="M100.03 133.486c-2.222-4.446-4.443-8.98-6.753-13.426.888-1.133.71-3.226-1.066-3.662-.711-.174-1.422-.348-2.044-.436-.533-.087-1.066-.087-1.51.175-19.903-1.395-40.073 1.395-59.887-2.093-2.754-.523-3.998 3.75-1.155 4.185 20.347 3.575 40.96.785 61.397 2.267-.089.436 0 .872.267 1.395 1.865 3.574 3.642 7.149 5.42 10.723.8 1.57 1.51 3.052 2.31 4.621.355.698 2.132 3.4 2.576 4.62 0 .088-.088.088-.088.175l-.09.175c-.355.872.178 2.005.978 2.44.089 0 .178.088.267.088 1.155.61 3.02.174 3.287-1.308.533-3.138-2.577-7.149-3.91-9.939zm21.73-19.087c-.554-4.008-1.292-7.929-2.4-11.85-.553-2.265-3.69-1.83-4.428-.087-1.476-.261-3.321.872-2.86 2.701 1.2 4.88 2.676 9.672 4.429 14.29.461 1.22 1.476 1.743 2.86 1.481 3.321-.435 2.675-4.27 2.399-6.535zm29.262-19.457c-1.74-5.12-4.178-9.888-7.485-14.126-3.134-4.06-7.747-9.27-13.056-9.8-3.308-.352-3.308 4.945 0 5.298 4.003.441 8.442 6.798 10.531 9.888 2.699 4.06 4.7 8.651 5.92 13.419 3.045 11.477 1.827 23.571-.436 35.048-.696 3.355 4.352 4.768 5.048 1.413 2.698-13.508 4.004-27.898-.522-41.14z" fill="#505A78" fill-rule="nonzero" opacity=".25"/></g></g></g></svg>